<svg width="18" height="19" viewBox="0 0 18 19" fill="none" xmlns="http://www.w3.org/2000/svg">
<g clip-path="url(#clip0_546_16259)">
<path d="M17.722 9.097L15.926 6.304C15.603 5.801 15.052 5.5 14.454 5.5H13V5.25C13 3.733 11.767 2.5 10.25 2.5H9.118C9.361 3.121 9.5 3.794 9.5 4.5C9.5 7.533 7.033 10 4 10C2.423 10 1.004 9.33 0 8.263V12.25C0 13.767 1.233 15 2.75 15H2.831C2.783 14.841 2.75 14.675 2.75 14.5C2.75 13.533 3.534 12.75 4.5 12.75C5.466 12.75 6.25 13.533 6.25 14.5C6.25 14.675 6.216 14.841 6.169 15H10.582C10.534 14.841 10.501 14.675 10.501 14.5C10.501 13.533 11.285 12.75 12.251 12.75C13.217 12.75 14.001 13.533 14.001 14.5C14.001 14.675 13.967 14.841 13.92 15H15.251C16.768 15 18.001 13.767 18.001 12.25V10.044C18.001 9.708 17.904 9.38 17.722 9.097ZM13 9V7H14.454C14.539 7 14.618 7.043 14.664 7.115L15.876 9H13Z" fill="#29A71A"/>
<path d="M4 0.5C1.794 0.5 0 2.294 0 4.5C0 6.706 1.794 8.5 4 8.5C6.206 8.5 8 6.706 8 4.5C8 2.294 6.206 0.5 4 0.5ZM6.312 5.45C6.193 5.74 5.914 5.915 5.619 5.915C5.523 5.915 5.428 5.897 5.334 5.859L3.715 5.194C3.434 5.078 3.25 4.804 3.25 4.5V2.75C3.25 2.336 3.586 2 4 2C4.414 2 4.75 2.336 4.75 2.75V3.997L5.904 4.471C6.287 4.628 6.47 5.067 6.312 5.45Z" fill="#29A71A"/>
<path d="M4.5 17C3.122 17 2 15.878 2 14.5C2 13.122 3.122 12 4.5 12C5.878 12 7 13.122 7 14.5C7 15.878 5.878 17 4.5 17ZM4.5 13.5C3.949 13.5 3.5 13.949 3.5 14.5C3.5 15.051 3.949 15.5 4.5 15.5C5.051 15.5 5.5 15.051 5.5 14.5C5.5 13.949 5.051 13.5 4.5 13.5Z" fill="#29A71A"/>
<path d="M12.25 17C10.872 17 9.75 15.878 9.75 14.5C9.75 13.122 10.872 12 12.25 12C13.628 12 14.75 13.122 14.75 14.5C14.75 15.878 13.628 17 12.25 17ZM12.25 13.5C11.699 13.5 11.25 13.949 11.25 14.5C11.25 15.051 11.699 15.5 12.25 15.5C12.801 15.5 13.25 15.051 13.25 14.5C13.25 13.949 12.801 13.5 12.25 13.5Z" fill="#29A71A"/>
</g>
<defs>
<clipPath id="clip0_546_16259">
<rect width="18" height="18" fill="white" transform="translate(0 0.5)"/>
</clipPath>
</defs>
</svg>
