<svg width="32" height="32" viewBox="0 0 32 32" fill="none" xmlns="http://www.w3.org/2000/svg">
<path d="M5.33398 5.5332H7.64122C8.61481 5.5332 9.45437 6.21739 9.65087 7.17095L11.8479 17.8328C12.1099 19.1043 13.2294 20.0165 14.5275 20.0165H22.7711C24.0347 20.0165 25.1339 19.1511 25.4305 17.9227L26.6091 13.0409C26.9207 11.7499 25.9425 10.5075 24.6145 10.5075H10.3082M14.2876 25.4302C14.2876 25.9796 13.8422 26.425 13.2928 26.425C12.7433 26.425 12.2979 25.9796 12.2979 25.4302C12.2979 24.8808 12.7433 24.4353 13.2928 24.4353C13.8422 24.4353 14.2876 24.8808 14.2876 25.4302ZM25.231 25.4302C25.231 25.9796 24.7856 26.425 24.2361 26.425C23.6867 26.425 23.2413 25.9796 23.2413 25.4302C23.2413 24.8808 23.6867 24.4353 24.2361 24.4353C24.7856 24.4353 25.231 24.8808 25.231 25.4302Z" stroke="#1C1C1D" stroke-width="2" stroke-linecap="round" stroke-linejoin="round"/>
</svg>
