<svg width="20" height="20" viewBox="0 0 20 20" fill="none" xmlns="http://www.w3.org/2000/svg">
<path d="M10 5.27783V10.0001L13.6111 12.5001" stroke="#AD2950" stroke-width="1.5" stroke-linecap="round" stroke-linejoin="round"/>
<path d="M10 1.94482C14.4489 1.94482 18.0556 5.55149 18.0556 10.0004C18.0556 14.4493 14.4489 18.0559 10 18.0559" stroke="#AD2950" stroke-width="1.5" stroke-linecap="round" stroke-linejoin="round"/>
<path d="M4.30404 16.5299C4.76427 16.5299 5.13737 16.1569 5.13737 15.6966C5.13737 15.2364 4.76427 14.8633 4.30404 14.8633C3.8438 14.8633 3.4707 15.2364 3.4707 15.6966C3.4707 16.1569 3.8438 16.5299 4.30404 16.5299Z" fill="#AD2950"/>
<path d="M1.94466 10.8337C2.4049 10.8337 2.77799 10.4606 2.77799 10.0003C2.77799 9.54009 2.4049 9.16699 1.94466 9.16699C1.48442 9.16699 1.11133 9.54009 1.11133 10.0003C1.11133 10.4606 1.48442 10.8337 1.94466 10.8337Z" fill="#AD2950"/>
<path d="M4.30404 5.13688C4.76427 5.13688 5.13737 4.76379 5.13737 4.30355C5.13737 3.84331 4.76427 3.47021 4.30404 3.47021C3.8438 3.47021 3.4707 3.84331 3.4707 4.30355C3.4707 4.76379 3.8438 5.13688 4.30404 5.13688Z" fill="#AD2950"/>
<path d="M6.91732 18.2756C7.37755 18.2756 7.75065 17.9025 7.75065 17.4422C7.75065 16.982 7.37755 16.6089 6.91732 16.6089C6.45708 16.6089 6.08398 16.982 6.08398 17.4422C6.08398 17.9025 6.45708 18.2756 6.91732 18.2756Z" fill="#AD2950"/>
<path d="M2.55794 13.9157C3.01818 13.9157 3.39128 13.5426 3.39128 13.0824C3.39128 12.6221 3.01818 12.249 2.55794 12.249C2.09771 12.249 1.72461 12.6221 1.72461 13.0824C1.72461 13.5426 2.09771 13.9157 2.55794 13.9157Z" fill="#AD2950"/>
<path d="M2.55794 7.75114C3.01818 7.75114 3.39128 7.37804 3.39128 6.91781C3.39128 6.45757 3.01818 6.08447 2.55794 6.08447C2.09771 6.08447 1.72461 6.45757 1.72461 6.91781C1.72461 7.37804 2.09771 7.75114 2.55794 7.75114Z" fill="#AD2950"/>
<path d="M6.91732 3.39128C7.37755 3.39128 7.75065 3.01818 7.75065 2.55794C7.75065 2.09771 7.37755 1.72461 6.91732 1.72461C6.45708 1.72461 6.08398 2.09771 6.08398 2.55794C6.08398 3.01818 6.45708 3.39128 6.91732 3.39128Z" fill="#AD2950"/>
</svg>
