<svg width="54" height="32" viewBox="0 0 54 32" fill="none" xmlns="http://www.w3.org/2000/svg">
<path d="M26.9993 8.72999C26.8793 8.82399 26.7633 8.91699 26.6503 9.01799C24.6953 10.723 23.4663 13.218 23.4663 16C23.4663 18.782 24.6943 21.277 26.6383 22.973L26.6493 22.982C26.7613 23.082 26.8803 23.179 26.9983 23.272C27.1183 23.18 27.2343 23.082 27.3473 22.982C29.3023 21.277 30.5303 18.782 30.5303 16C30.5303 13.218 29.3023 10.723 27.3583 9.02699L27.3473 9.01799C27.2353 8.91799 27.1173 8.82299 26.9983 8.72999H26.9993ZM32.7203 6.74499C32.7153 6.74499 32.7093 6.74499 32.7023 6.74499C30.7993 6.74499 29.0323 7.32199 27.5643 8.31099L27.5973 8.28999C27.6723 8.34899 27.7403 8.41099 27.8023 8.47599L27.8033 8.47699C29.9193 10.313 31.2493 13.005 31.2493 16.008C31.2493 19.004 29.9263 21.69 27.8323 23.515L27.8203 23.525C27.7483 23.586 27.6703 23.647 27.5943 23.707C29.0353 24.677 30.8103 25.256 32.7193 25.256C37.8313 25.256 41.9753 21.112 41.9753 16C41.9753 10.888 37.8323 6.74599 32.7203 6.74499ZM26.1793 23.526C26.2513 23.587 26.3293 23.648 26.4053 23.708C24.9653 24.677 23.1913 25.255 21.2823 25.255C16.1703 25.255 12.0273 21.111 12.0273 16C12.0273 10.889 16.1713 6.74499 21.2823 6.74499C23.1893 6.74499 24.9623 7.32199 26.4353 8.31099L26.4023 8.28999C26.3273 8.34899 26.2593 8.41099 26.1973 8.47599L26.1963 8.47699C24.0803 10.313 22.7503 13.005 22.7503 16.008C22.7503 19.004 24.0733 21.69 26.1673 23.515L26.1793 23.526Z" fill="#93949B"/>
</svg>
