<svg width="16" height="17" viewBox="0 0 16 17" fill="none" xmlns="http://www.w3.org/2000/svg">
<g clip-path="url(#clip0_546_8000)">
<path d="M7.31053 7.04806C8.75056 7.04806 9.91794 5.88069 9.91794 4.44066C9.91794 3.00063 8.75056 1.83325 7.31053 1.83325C5.8705 1.83325 4.70312 3.00063 4.70312 4.44066C4.70312 5.88069 5.8705 7.04806 7.31053 7.04806Z" stroke="#AD2950" stroke-width="1.5" stroke-linecap="round" stroke-linejoin="round"/>
<path d="M9.63492 9.9058C8.92002 9.59955 8.13874 9.41846 7.31101 9.41846C4.89228 9.41846 2.81774 10.8691 1.89803 12.9456C1.55196 13.7278 1.98052 14.6276 2.79593 14.8845C3.71184 15.1737 4.86953 15.4326 6.20642 15.5321" stroke="#AD2950" stroke-width="1.5" stroke-linecap="round" stroke-linejoin="round"/>
<path d="M10.8257 15.2504C10.9613 15.204 11.0845 15.1262 11.186 15.0248L14.3177 11.8931C14.7757 11.4351 14.7709 10.6974 14.313 10.2385C13.855 9.78058 13.1174 9.77489 12.6585 10.2338L9.52673 13.3655C9.42528 13.467 9.34753 13.5902 9.30107 13.7258L8.49609 16.0554L10.8257 15.2504Z" stroke="#AD2950" stroke-width="1.5" stroke-linecap="round" stroke-linejoin="round"/>
</g>
<defs>
<clipPath id="clip0_546_8000">
<rect width="16" height="16" fill="white" transform="translate(0 0.5)"/>
</clipPath>
</defs>
</svg>
