<svg width="16" height="17" viewBox="0 0 16 17" fill="none" xmlns="http://www.w3.org/2000/svg">
<rect x="0.75" y="1.25" width="14.5" height="14.5" rx="7.25" stroke="#1C1C1D" stroke-width="1.5"/>
<path d="M5.80056 11.0943H4.71484V10.2486H5.80056V9.48286H4.71484V8.52286H5.80056V4.5H8.31484C9.34342 4.5 10.0939 4.72095 10.5663 5.16286C11.0463 5.59714 11.2863 6.20667 11.2863 6.99143C11.2863 7.76095 11.0425 8.37048 10.5548 8.82C10.0748 9.2619 9.32818 9.48286 8.31484 9.48286H6.87484V10.2486H9.57199V11.0943H6.87484V12.5H5.80056V11.0943ZM6.87484 5.48286V8.52286H8.31484C8.99294 8.52286 9.47294 8.39714 9.75484 8.14571C10.0367 7.89429 10.1777 7.51333 10.1777 7.00286C10.1777 6.5 10.0329 6.12286 9.74342 5.87143C9.46151 5.61238 8.98532 5.48286 8.31484 5.48286H6.87484Z" fill="#1C1C1D"/>
</svg>
