<svg width="30" height="30" viewBox="0 0 30 30" fill="none" xmlns="http://www.w3.org/2000/svg">
<rect x="1" y="1" width="28" height="28" rx="14" stroke="white" stroke-width="2"/>
<path d="M11.6989 18.8914H10.0703V17.6229H11.6989V16.4743H10.0703V15.0343H11.6989V9H15.4703C17.0132 9 18.1389 9.33143 18.8475 9.99429C19.5675 10.6457 19.9275 11.56 19.9275 12.7371C19.9275 13.8914 19.5617 14.8057 18.8303 15.48C18.1103 16.1429 16.9903 16.4743 15.4703 16.4743H13.3103V17.6229H17.356V18.8914H13.3103V21H11.6989V18.8914ZM13.3103 10.4743V15.0343H15.4703C16.4875 15.0343 17.2075 14.8457 17.6303 14.4686C18.0532 14.0914 18.2646 13.52 18.2646 12.7543C18.2646 12 18.0475 11.4343 17.6132 11.0571C17.1903 10.6686 16.476 10.4743 15.4703 10.4743H13.3103Z" fill="white"/>
</svg>
