<svg width="54" height="32" viewBox="0 0 54 32" fill="none" xmlns="http://www.w3.org/2000/svg">
<g clip-path="url(#clip0_18147_8758)">
<path d="M42.063 13.9288V18.8381H40.31V15.3943H38.6221V18.8381H36.8691V13.9285H42.063V13.9288Z" fill="#93949B"/>
<path fill-rule="evenodd" clip-rule="evenodd" d="M33.2682 19.0135C34.8377 19.0135 36.003 18.0513 36.003 16.5928C36.003 15.181 35.1432 14.2644 33.7063 14.2644C33.0432 14.2644 32.496 14.4978 32.0838 14.9006C32.1822 14.0681 32.8862 13.4603 33.6613 13.4603C33.8402 13.4603 35.1869 13.4575 35.1869 13.4575L35.9482 12C35.9482 12 34.2577 12.0385 33.4717 12.0385C31.6759 12.07 30.4629 13.7023 30.4629 15.6847C30.4629 17.9946 31.6459 19.0136 33.2684 19.0136L33.2682 19.0135ZM33.2779 15.5552C33.8606 15.5552 34.2645 15.9381 34.2645 16.5927C34.2645 17.1817 33.9056 17.6673 33.2779 17.6686C32.6775 17.6686 32.2736 17.2188 32.2736 16.6027C32.2736 15.9479 32.6775 15.5552 33.2779 15.5552Z" fill="#93949B"/>
<path d="M29.0359 17.1945C29.0359 17.1945 28.6219 17.4332 28.0035 17.4783C27.2928 17.4994 26.6594 17.0505 26.6594 16.2528C26.6594 15.4747 27.2183 15.0287 27.9857 15.0287C28.4563 15.0287 29.0787 15.3549 29.0787 15.3549C29.0787 15.3549 29.5342 14.519 29.7702 14.101C29.3381 13.7736 28.7626 13.594 28.0933 13.594C26.4041 13.594 25.0957 14.6954 25.0957 16.2429C25.0957 17.8102 26.3254 18.8859 28.0933 18.8533C28.5874 18.8349 29.2692 18.6615 29.6847 18.3947L29.0359 17.1945Z" fill="#93949B"/>
<path d="M7.48047 10.3307L9.91216 14.6772V17.3285L7.48331 21.6664L7.48047 10.3307Z" fill="#93949B"/>
<path d="M16.8184 13.0956L19.0969 11.699L23.7602 11.6947L16.8184 15.9473V13.0956Z" fill="#93949B"/>
<path d="M16.8054 10.3051L16.8182 16.0597L14.3809 14.5621V5.95999L16.8054 10.3051Z" fill="#93949B"/>
<path d="M23.7601 11.6947L19.0966 11.699L16.8054 10.3051L14.3809 5.95999L23.7601 11.6947Z" fill="#93949B"/>
<path d="M16.8182 21.6905V18.8985L14.3809 17.4294L14.3822 26.04L16.8182 21.6905Z" fill="#93949B"/>
<path d="M19.0901 20.3067L9.91199 14.6772L7.48047 10.3307L23.7491 20.301L19.0901 20.3067Z" fill="#93949B"/>
<path d="M14.3809 26.04L16.8166 21.6905L19.0895 20.3067L23.7485 20.301L14.3809 26.04Z" fill="#93949B"/>
<path d="M7.48438 21.6664L14.4008 17.4295L12.0755 16.0028L9.91322 17.3285L7.48438 21.6664Z" fill="#93949B"/>
</g>
<defs>
<clipPath id="clip0_18147_8758">
<rect width="40" height="20.08" fill="white" transform="translate(7 5.95999)"/>
</clipPath>
</defs>
</svg>
