<svg width="21" height="20" viewBox="0 0 21 20" fill="none" xmlns="http://www.w3.org/2000/svg">
<path d="M10.5009 8.05545C12.1884 8.05545 13.5564 6.68743 13.5564 4.99989C13.5564 3.31235 12.1884 1.94434 10.5009 1.94434C8.81333 1.94434 7.44531 3.31235 7.44531 4.99989C7.44531 6.68743 8.81333 8.05545 10.5009 8.05545Z" stroke="white" stroke-width="2" stroke-linecap="round" stroke-linejoin="round"/>
<path d="M15.7915 17.2397C16.7471 16.9386 17.2493 15.883 16.8437 14.9675C15.7659 12.533 13.3337 10.833 10.5004 10.833C7.66706 10.833 5.23484 12.533 4.15706 14.9675C3.7515 15.8841 4.25372 16.9386 5.20928 17.2397C6.57039 17.6686 8.3715 18.0552 10.5004 18.0552C12.6293 18.0552 14.4304 17.6686 15.7915 17.2397Z" stroke="white" stroke-width="2" stroke-linecap="round" stroke-linejoin="round"/>
</svg>
