<svg width="54" height="32" viewBox="0 0 54 32" fill="none" xmlns="http://www.w3.org/2000/svg">
<path fill-rule="evenodd" clip-rule="evenodd" d="M17.8681 21.9065H14.7071L12.3367 12.5972C12.2241 12.169 11.9853 11.7904 11.6338 11.612C10.7569 11.1636 9.79053 10.8068 8.73633 10.6268V10.2684H13.8286C14.5314 10.2684 15.0585 10.8068 15.1463 11.432L16.3762 18.1471L19.5358 10.2684H22.609L17.8681 21.9065ZM24.366 21.9065H21.3806L23.8389 10.2684H26.8243L24.366 21.9065ZM30.6866 13.4925C30.7745 12.8657 31.3016 12.5073 31.9165 12.5073C32.8829 12.4173 33.9355 12.5973 34.814 13.0441L35.3411 10.5384C34.4626 10.18 33.4963 10 32.6193 10C29.7218 10 27.6134 11.6121 27.6134 13.8494C27.6134 15.5514 29.1068 16.4451 30.161 16.9835C31.3016 17.5203 31.7408 17.8787 31.653 18.4156C31.653 19.2208 30.7745 19.5792 29.8975 19.5792C28.8433 19.5792 27.7891 19.3108 26.8243 18.8624L26.2972 21.3697C27.3514 21.8166 28.4919 21.9965 29.5461 21.9965C32.795 22.085 34.814 20.4745 34.814 18.0572C34.814 15.013 30.6866 14.8346 30.6866 13.4925ZM45.2621 21.9065L42.8917 10.2684H40.3455C39.8184 10.2684 39.2913 10.6268 39.1156 11.1636L34.7262 21.9065H37.7994L38.4128 20.206H42.1889L42.5403 21.9065H45.2621ZM40.7847 13.4026L41.6617 17.7888H39.2034L40.7847 13.4026Z" fill="#93949B"/>
</svg>
