<svg width="14" height="15" viewBox="0 0 14 15" fill="none" xmlns="http://www.w3.org/2000/svg">
<path d="M11.9826 2.56174C10.8079 1.38361 9.24708 0.660795 7.58204 0.523793C5.91699 0.386791 4.25742 0.844631 2.90294 1.81465C1.54846 2.78467 0.588336 4.20295 0.195914 5.81343C-0.196508 7.4239 0.0046314 9.12044 0.763017 10.5967L0.0199981 14.174C0.0120423 14.2097 0.011734 14.2467 0.0190932 14.2826C0.0264524 14.3184 0.0413153 14.3523 0.0627216 14.3821C0.0933771 14.4273 0.137198 14.462 0.188319 14.4818C0.239441 14.5015 0.295426 14.5053 0.348784 14.4927L3.87813 13.6619C5.36277 14.3942 7.06131 14.5804 8.67139 14.1873C10.2815 13.7941 11.6987 12.8471 12.6707 11.5149C13.6427 10.1827 14.1064 8.55172 13.9794 6.91221C13.8524 5.2727 13.1428 3.73108 11.977 2.56174H11.9826ZM10.8792 11.2875C10.0668 12.0917 9.02057 12.6233 7.88771 12.8073C6.75486 12.9913 5.59232 12.8187 4.56356 12.3135L4.06945 12.0704L1.90169 12.5788V12.5511L2.35865 10.3831L2.11717 9.9115C1.59115 8.88855 1.40542 7.72667 1.58663 6.59255C1.76784 5.45844 2.30668 4.41039 3.12582 3.59881C4.15436 2.57992 5.54871 2.0076 7.00252 2.0076C8.45634 2.0076 9.85069 2.57992 10.8792 3.59881L10.9034 3.63197C11.9185 4.6541 12.4852 6.03264 12.48 7.46727C12.4748 8.9019 11.8981 10.2764 10.8755 11.2912L10.8792 11.2875Z" fill="white"/>
<path d="M10.6881 9.71127C10.4225 10.1257 10.0008 10.6323 9.47515 10.7594C8.54637 10.9804 7.13278 10.7594 5.36254 9.13655L5.34025 9.11629C3.80034 7.69054 3.39168 6.50243 3.4827 5.56114C3.53657 5.02511 3.98609 4.54249 4.36503 4.22566C4.42528 4.17528 4.49658 4.13958 4.57322 4.1214C4.64987 4.10323 4.72974 4.10309 4.80645 4.12098C4.88316 4.13888 4.95459 4.17433 5.01502 4.22449C5.07545 4.27465 5.12322 4.33813 5.15449 4.40986L5.72476 5.68824C5.76199 5.77053 5.77595 5.86131 5.76515 5.95087C5.75435 6.04042 5.7192 6.12538 5.66346 6.19665L5.37368 6.56505C5.31345 6.64153 5.27757 6.73407 5.27062 6.83086C5.26368 6.92765 5.28597 7.0243 5.33467 7.10846C5.60993 7.51077 5.93928 7.87394 6.3136 8.1879C6.71634 8.57225 7.17308 8.89675 7.66961 9.15129C7.76024 9.18751 7.85968 9.19616 7.95528 9.17615C8.05088 9.15614 8.13831 9.10837 8.20644 9.03892L8.53894 8.70367C8.60221 8.6362 8.68307 8.58741 8.77258 8.5627C8.86208 8.538 8.95673 8.53833 9.04606 8.56367L10.4021 8.94866C10.4789 8.97034 10.5495 9.00966 10.6082 9.06342C10.6669 9.11719 10.7119 9.18389 10.7398 9.25814C10.7677 9.33239 10.7775 9.4121 10.7685 9.49082C10.7595 9.56954 10.732 9.64506 10.6881 9.71127Z" fill="white"/>
</svg>
