<svg width="19" height="18" viewBox="0 0 19 18" fill="none" xmlns="http://www.w3.org/2000/svg">
<path d="M16.625 9.875H2.375C1.754 9.875 1.25 9.427 1.25 8.875C1.25 8.323 1.754 7.875 2.375 7.875H16.625C17.246 7.875 17.75 8.323 17.75 8.875C17.75 9.427 17.246 9.875 16.625 9.875Z" fill="#1C1C1D"/>
<path d="M16.625 4.25H2.375C1.754 4.25 1.25 3.802 1.25 3.25C1.25 2.698 1.754 2.25 2.375 2.25H16.625C17.246 2.25 17.75 2.698 17.75 3.25C17.75 3.802 17.246 4.25 16.625 4.25Z" fill="#1C1C1D"/>
<path d="M9.125 15.5H2.375C1.754 15.5 1.25 15.052 1.25 14.5C1.25 13.948 1.754 13.5 2.375 13.5H9.125C9.746 13.5 10.25 13.948 10.25 14.5C10.25 15.052 9.746 15.5 9.125 15.5Z" fill="#1C1C1D"/>
</svg>
