<svg width="14" height="18" viewBox="0 0 14 18" fill="none" xmlns="http://www.w3.org/2000/svg">
<g clip-path="url(#clip0_18147_8709)">
<path d="M8.19944 13.6717L9.15144 12.5668C9.40694 12.2483 9.84445 12.141 10.2178 12.3067L12.2991 13.156C12.7016 13.3345 12.9151 13.7778 12.8043 14.2037L12.2093 16.0155C12.0471 16.5113 11.5734 16.859 11.0543 16.817C8.42461 16.6047 6.06211 15.4497 4.30394 13.6903L4.30978 13.6962C2.55044 11.938 1.39544 9.57551 1.18311 6.94584C1.14111 6.42551 1.48994 5.95301 1.98461 5.79084L3.79644 5.19584C4.22228 5.08501 4.66561 5.29967 4.84411 5.70101L5.69344 7.78234C5.85911 8.15567 5.75294 8.59434 5.43328 8.84867L4.32844 9.80067" stroke="#1C1C1D" stroke-width="1.5" stroke-linecap="round" stroke-linejoin="round"/>
</g>
<defs>
<clipPath id="clip0_18147_8709">
<rect width="14" height="14" fill="white" transform="translate(0 4)"/>
</clipPath>
</defs>
</svg>
