<svg width="24" height="24" viewBox="0 0 24 24" fill="none" xmlns="http://www.w3.org/2000/svg">
<path d="M11.9987 14.6666C13.4715 14.6666 14.6654 13.4727 14.6654 11.9999C14.6654 10.5272 13.4715 9.33325 11.9987 9.33325C10.5259 9.33325 9.33203 10.5272 9.33203 11.9999C9.33203 13.4727 10.5259 14.6666 11.9987 14.6666Z" stroke="#212121" stroke-width="1.5" stroke-linecap="round" stroke-linejoin="round"/>
<path d="M6.66536 5C6.66536 7.39333 4.72536 9.33333 2.33203 9.33333" stroke="#212121" stroke-width="1.5" stroke-linecap="round" stroke-linejoin="round"/>
<path d="M17.332 5C17.332 7.39333 19.272 9.33333 21.6654 9.33333" stroke="#212121" stroke-width="1.5" stroke-linecap="round" stroke-linejoin="round"/>
<path d="M6.66536 19.0001C6.66536 16.6067 4.72536 14.6667 2.33203 14.6667" stroke="#212121" stroke-width="1.5" stroke-linecap="round" stroke-linejoin="round"/>
<path d="M17.332 19.0001C17.332 16.6067 19.272 14.6667 21.6654 14.6667" stroke="#212121" stroke-width="1.5" stroke-linecap="round" stroke-linejoin="round"/>
<path d="M18.9987 5H4.9987C3.52594 5 2.33203 6.19391 2.33203 7.66667V16.3333C2.33203 17.8061 3.52594 19 4.9987 19H18.9987C20.4715 19 21.6654 17.8061 21.6654 16.3333V7.66667C21.6654 6.19391 20.4715 5 18.9987 5Z" stroke="#212121" stroke-width="1.5" stroke-linecap="round" stroke-linejoin="round"/>
</svg>
