<svg width="24" height="24" viewBox="0 0 24 24" fill="none" xmlns="http://www.w3.org/2000/svg">
<path d="M18.1129 10.4141L16.1015 10.9726C15.8342 11.0468 15.5574 10.8904 15.4832 10.6231L14.9247 8.61172C14.8505 8.34448 15.007 8.06768 15.2742 7.99348L17.2856 7.43494C17.5528 7.36073 17.8296 7.51721 17.9039 7.78445L18.4624 9.79586C18.5366 10.0631 18.3801 10.3399 18.1129 10.4141Z" fill="#F7CC6D"/>
<path d="M17.285 7.43494C16.9517 7.52749 16.7566 7.87268 16.8491 8.20596L16.8753 8.30018C17.1066 9.13326 16.6188 9.99613 15.7857 10.2275L15.4023 10.3339L15.4827 10.6231C15.5569 10.8904 15.8336 11.0468 16.1009 10.9726L18.1123 10.4141C18.3795 10.3399 18.536 10.0631 18.4618 9.79586L17.9033 7.78448C17.8291 7.51722 17.5523 7.36073 17.285 7.43494Z" fill="#F7CC6D"/>
<path d="M5.55815 17.0272L3.18358 17.6865C2.89175 17.7676 2.58948 17.5967 2.50845 17.3049L2.50451 17.2907C2.42347 16.9989 2.59435 16.6966 2.88618 16.6155L5.26076 15.9562C5.55258 15.8751 5.85485 16.046 5.93589 16.3378L5.93983 16.352C6.02086 16.6439 5.84998 16.9461 5.55815 17.0272Z" fill="#F7CC6D"/>
<path d="M9.99956 15.7952L7.62498 16.4546C7.33316 16.5356 7.03089 16.3648 6.94985 16.0729L6.94591 16.0587C6.86488 15.7669 7.03576 15.4647 7.32759 15.3836L9.70216 14.7242C9.99399 14.6432 10.2963 14.8141 10.3773 15.1059L10.3812 15.1201C10.4623 15.4119 10.2914 15.7142 9.99956 15.7952Z" fill="#F7CC6D"/>
<path d="M14.441 14.5618L12.0664 15.2212C11.7746 15.3022 11.4723 15.1314 11.3913 14.8395L11.3873 14.8253C11.3063 14.5335 11.4772 14.2313 11.769 14.1502L14.1436 13.4908C14.4354 13.4098 14.7377 13.5807 14.8187 13.8725L14.8226 13.8867C14.9037 14.1785 14.7328 14.4808 14.441 14.5618Z" fill="#F7CC6D"/>
<path d="M18.8824 13.3289L16.5078 13.9883C16.216 14.0693 15.9137 13.8984 15.8327 13.6066L15.8287 13.5924C15.7477 13.3006 15.9186 12.9983 16.2104 12.9173L18.585 12.2579C18.8768 12.1769 19.1791 12.3478 19.2601 12.6396L19.264 12.6538C19.3451 12.9456 19.1742 13.2479 18.8824 13.3289Z" fill="#F7CC6D"/>
<path d="M21.2224 19.7007H3.0079C1.89897 19.7007 1 18.8017 1 17.6928V7.0079C1 5.89897 1.89897 5 3.0079 5H21.2224C22.3313 5 23.2303 5.89897 23.2303 7.0079V17.6928C23.2303 18.8017 22.3313 19.7007 21.2224 19.7007Z" fill="#63AFFA"/>
<path d="M1 7.61914H23.2305V10.176H1V7.61914Z" fill="#626681"/>
<path d="M9.04843 13.2029H3.55138C3.08074 13.2029 2.69922 12.8213 2.69922 12.3507C2.69922 11.8801 3.08074 11.4985 3.55138 11.4985H9.04843C9.51906 11.4985 9.90059 11.8801 9.90059 12.3507C9.90059 12.8213 9.51906 13.2029 9.04843 13.2029Z" fill="#82C8FB"/>
<path d="M6.4972 17.9255H4.03277C3.7299 17.9255 3.48438 17.6799 3.48438 17.3771V17.3624C3.48438 17.0595 3.7299 16.814 4.03277 16.814H6.4972C6.80007 16.814 7.04559 17.0595 7.04559 17.3624V17.3771C7.04559 17.6799 6.80007 17.9255 6.4972 17.9255Z" fill="#82C8FB"/>
<path d="M11.1105 17.9255H8.64605C8.34318 17.9255 8.09766 17.6799 8.09766 17.3771V17.3624C8.09766 17.0595 8.34318 16.814 8.64605 16.814H11.1105C11.4133 16.814 11.6589 17.0595 11.6589 17.3624V17.3771C11.6589 17.6799 11.4133 17.9255 11.1105 17.9255Z" fill="#82C8FB"/>
<path d="M15.7081 17.9255H13.2437C12.9408 17.9255 12.6953 17.6799 12.6953 17.3771V17.3624C12.6953 17.0595 12.9408 16.814 13.2437 16.814H15.7081C16.011 16.814 16.2565 17.0595 16.2565 17.3624V17.3771C16.2565 17.6799 16.011 17.9255 15.7081 17.9255Z" fill="#82C8FB"/>
<path d="M20.3175 17.9255H17.8531C17.5502 17.9255 17.3047 17.6799 17.3047 17.3771V17.3624C17.3047 17.0595 17.5502 16.814 17.8531 16.814H20.3175C20.6204 16.814 20.8659 17.0595 20.8659 17.3624V17.3771C20.8659 17.6799 20.6204 17.9255 20.3175 17.9255Z" fill="#82C8FB"/>
<path d="M17.1055 11.9009L19.0068 13.8022L17.1055 15.7035L15.2041 13.8022L17.1055 11.9009Z" fill="#F7CC6D"/>
<path d="M17.224 12.9231V12.9399C17.224 13.5406 16.737 14.0276 16.1363 14.0276C15.8727 14.0276 15.7407 14.3463 15.9271 14.5327L17.102 15.7076L19.0032 13.8064L17.8575 12.6607C17.6237 12.4269 17.224 12.5925 17.224 12.9231Z" fill="#F4BC5F"/>
<path d="M19.5 11.8999L21.4013 13.8012L19.5 15.7025L17.5987 13.8012L19.5 11.8999Z" fill="#FC4A32"/>
<path d="M20.1475 12.945C20.1475 13.6484 19.5772 14.2186 18.8738 14.2186C18.5519 14.2186 18.3906 14.6079 18.6183 14.8355L19.4898 15.707L21.391 13.8058L20.4181 12.8329C20.3182 12.733 20.1475 12.8037 20.1475 12.945Z" fill="#E23E2D"/>
</svg>
