<svg width="24" height="25" viewBox="0 0 24 25" fill="none" xmlns="http://www.w3.org/2000/svg">
<path d="M11.9987 1.83337C6.11736 1.83337 1.33203 6.61871 1.33203 12.5C1.33203 18.3814 6.11736 23.1667 11.9987 23.1667C17.88 23.1667 22.6654 18.3814 22.6654 12.5C22.6654 6.61871 17.88 1.83337 11.9987 1.83337ZM17.2614 9.35471C14.7827 11.1974 12.6814 13.7414 11.0174 16.9134C10.8454 17.2427 10.504 17.4494 10.132 17.4494C9.7627 17.4534 9.4147 17.24 9.2427 16.9067C8.47603 15.4174 7.6187 14.2067 6.6227 13.2054C6.23336 12.8147 6.2347 12.18 6.6267 11.7907C7.01603 11.4014 7.6507 11.4014 8.04136 11.7947C8.80537 12.5627 9.4947 13.432 10.1254 14.424C11.7774 11.6974 13.7707 9.45604 16.0694 7.74804C16.512 7.42004 17.1387 7.51071 17.468 7.95471C17.7974 8.39737 17.7054 9.02537 17.2614 9.35471Z" fill="#03A050"/>
</svg>
