<svg width="54" height="32" viewBox="0 0 54 32" fill="none" xmlns="http://www.w3.org/2000/svg">
<g clip-path="url(#clip0_18147_8752)">
<path fill-rule="evenodd" clip-rule="evenodd" d="M42.5098 10.2857H34.918C35.3261 12.8163 37.7751 15.1837 40.469 15.1837H46.5098C46.5914 14.9388 46.5914 14.6122 46.5914 14.3673C46.5914 12.0816 44.7955 10.2857 42.5098 10.2857Z" fill="#93949B"/>
<path fill-rule="evenodd" clip-rule="evenodd" d="M35.5723 15.5918V21.7143H39.2457V18.449H42.511C44.307 18.449 45.858 17.2245 46.3478 15.5918H35.5723Z" fill="#93949B"/>
<path fill-rule="evenodd" clip-rule="evenodd" d="M22.5098 10.2857V21.7143H25.7751C25.7751 21.7143 26.5914 21.7143 26.9996 20.898C29.2036 16.4898 29.8567 15.1837 29.8567 15.1837H30.2649V21.7143H33.9383V10.2857H30.673C30.673 10.2857 29.8567 10.3673 29.4485 11.102C27.571 14.8571 26.5914 16.8163 26.5914 16.8163H26.1832V10.2857H22.5098Z" fill="#93949B"/>
<path fill-rule="evenodd" clip-rule="evenodd" d="M7 21.7143V10.2857H10.6735C10.6735 10.2857 11.7347 10.2857 12.3061 11.9184C13.7755 16.2449 13.9388 16.8163 13.9388 16.8163C13.9388 16.8163 14.2653 15.7551 15.5714 11.9184C16.1429 10.2857 17.2041 10.2857 17.2041 10.2857H20.8776V21.7143H17.2041V15.5918H16.7959L14.7551 21.7143H13.1224L11.0816 15.5918H10.6735V21.7143H7Z" fill="#93949B"/>
</g>
<defs>
<clipPath id="clip0_18147_8752">
<rect width="40" height="11.4286" fill="white" transform="translate(7 10.2857)"/>
</clipPath>
</defs>
</svg>
