<svg width="20" height="20" viewBox="0 0 20 20" fill="none" xmlns="http://www.w3.org/2000/svg">
<g clip-path="url(#clip0_568_9094)">
<path d="M10.0013 18.3332C14.6037 18.3332 18.3346 14.6022 18.3346 9.99984C18.3346 5.39746 14.6037 1.6665 10.0013 1.6665C5.39893 1.6665 1.66797 5.39746 1.66797 9.99984C1.66797 14.6022 5.39893 18.3332 10.0013 18.3332Z" stroke="#93949B" stroke-width="1.5" stroke-miterlimit="10" stroke-linecap="square"/>
<path d="M10.0026 15.4163C10.5779 15.4163 11.0443 14.95 11.0443 14.3747C11.0443 13.7994 10.5779 13.333 10.0026 13.333C9.42731 13.333 8.96094 13.7994 8.96094 14.3747C8.96094 14.95 9.42731 15.4163 10.0026 15.4163Z" fill="#93949B"/>
<path d="M7.70312 6.97398C8.05479 5.63398 9.14729 4.94065 10.3706 5.00398C11.579 5.06648 12.7031 5.73065 12.6515 7.27232C12.5773 9.46398 10.2481 9.16648 9.98729 11.2498H9.99646" stroke="#93949B" stroke-width="1.5" stroke-miterlimit="10" stroke-linecap="square"/>
</g>
<defs>
<clipPath id="clip0_568_9094">
<rect width="20" height="20" fill="white"/>
</clipPath>
</defs>
</svg>
