<svg width="24" height="24" viewBox="0 0 24 24" fill="none" xmlns="http://www.w3.org/2000/svg">
<g clip-path="url(#clip0_617_16427)">
<path d="M18.7327 6.64209C19.1482 7.17867 19.4943 7.76721 19.7886 8.39034L11.7915 14.2928L8.43359 12.1811V9.65391L11.7744 11.7484L18.7327 6.64209Z" fill="#21A038"/>
<path d="M5.02521 12.0059C5.02521 11.8848 5.02521 11.7809 5.04252 11.6597L3.01731 11.5559C3.01731 11.6944 3 11.8502 3 11.9886C3 14.412 3.98664 16.6101 5.5791 18.2028L7.01577 16.7661C5.78679 15.5545 5.02521 13.8753 5.02521 12.0059Z" fill="url(#paint0_linear_617_16427)"/>
<path d="M11.775 5.25592C11.8962 5.25592 12 5.25592 12.1212 5.27323L12.2251 3.24802C12.0866 3.24802 11.9308 3.23071 11.7923 3.23071C9.36901 3.23071 7.17082 4.21735 5.57812 5.80981L7.01479 7.24648C8.22646 6.0175 9.9229 5.25592 11.775 5.25592Z" fill="url(#paint1_linear_617_16427)"/>
<path d="M11.7743 18.7589C11.6531 18.7589 11.5493 18.7589 11.4281 18.7416L11.3242 20.7668C11.4627 20.7668 11.6185 20.7841 11.757 20.7841C14.1803 20.7841 16.3785 19.7975 17.9712 18.205L16.5345 16.7683C15.3228 18.0146 13.6437 18.7589 11.7743 18.7589Z" fill="url(#paint2_linear_617_16427)"/>
<path d="M15.5855 6.4349L17.2991 5.1713C15.7932 3.95966 13.8719 3.21533 11.7773 3.21533V5.24054C13.1967 5.25785 14.5122 5.6906 15.5855 6.4349Z" fill="url(#paint3_linear_617_16427)"/>
<path d="M20.5706 12.0061C20.5706 11.4695 20.5187 10.9502 20.4322 10.4309L18.5454 11.833V12.0061C18.5454 13.9967 17.68 15.7795 16.3125 17.0086L17.68 18.5145C19.4455 16.9221 20.5706 14.5855 20.5706 12.0061Z" fill="#21A038"/>
<path d="M11.774 18.7591C9.78344 18.7591 8.00063 17.8936 6.77153 16.5261L5.26562 17.8936C6.8754 19.6765 9.19473 20.7843 11.7741 20.7843L11.774 18.7591Z" fill="url(#paint4_linear_617_16427)"/>
<path d="M7.25814 7.00496L5.89068 5.49902C4.10781 7.10879 3 9.42812 3 12.0072H5.02521C5.02521 10.0339 5.89068 8.23406 7.25814 7.00496Z" fill="url(#paint5_linear_617_16427)"/>
</g>
<defs>
<linearGradient id="paint0_linear_617_16427" x1="5.36252" y1="17.968" x2="3.29526" y2="11.9924" gradientUnits="userSpaceOnUse">
<stop offset="0.1444" stop-color="#F2E913"/>
<stop offset="0.3037" stop-color="#E7E518"/>
<stop offset="0.5823" stop-color="#CADB26"/>
<stop offset="0.891" stop-color="#A3CD39"/>
</linearGradient>
<linearGradient id="paint1_linear_617_16427" x1="6.14719" y1="5.5734" x2="11.3988" y2="3.57218" gradientUnits="userSpaceOnUse">
<stop offset="0.0592" stop-color="#0FA8E0"/>
<stop offset="0.5385" stop-color="#0099F9"/>
<stop offset="0.9234" stop-color="#0291EB"/>
</linearGradient>
<linearGradient id="paint2_linear_617_16427" x1="11.2063" y1="19.0645" x2="17.4657" y2="17.6499" gradientUnits="userSpaceOnUse">
<stop offset="0.1226" stop-color="#A3CD39"/>
<stop offset="0.2846" stop-color="#86C339"/>
<stop offset="0.8693" stop-color="#21A038"/>
</linearGradient>
<linearGradient id="paint3_linear_617_16427" x1="11.3575" y1="4.51062" x2="16.5629" y2="6.11682" gradientUnits="userSpaceOnUse">
<stop offset="0.0566" stop-color="#0291EB"/>
<stop offset="0.79" stop-color="#0C8ACB"/>
</linearGradient>
<linearGradient id="paint4_linear_617_16427" x1="5.77312" y1="18.227" x2="11.3627" y2="20.3163" gradientUnits="userSpaceOnUse">
<stop offset="0.1324" stop-color="#F2E913"/>
<stop offset="0.2977" stop-color="#EBE716"/>
<stop offset="0.5306" stop-color="#D9E01F"/>
<stop offset="0.8023" stop-color="#BBD62D"/>
<stop offset="0.9829" stop-color="#A3CD39"/>
</linearGradient>
<linearGradient id="paint5_linear_617_16427" x1="4.53927" y1="12.2554" x2="6.77454" y2="6.44093" gradientUnits="userSpaceOnUse">
<stop offset="0.0698" stop-color="#A3CD39"/>
<stop offset="0.2599" stop-color="#81C55F"/>
<stop offset="0.9216" stop-color="#0FA8E0"/>
</linearGradient>
<clipPath id="clip0_617_16427">
<rect width="24" height="24" fill="white"/>
</clipPath>
</defs>
</svg>
