<svg width="24" height="24" viewBox="0 0 24 24" fill="none" xmlns="http://www.w3.org/2000/svg">
<g clip-path="url(#clip0_615_15198)">
<path d="M3 5.19629L5.91856 10.413V13.5951L3.00341 18.8016L3 5.19629Z" fill="#5B57A2"/>
<path d="M14.2031 8.51441L16.9379 6.83823L22.5348 6.83301L14.2031 11.9371V8.51441Z" fill="#D90751"/>
<path d="M14.1912 5.16532L14.2066 12.0721L11.2812 10.2746V-0.0498047L14.1912 5.16532Z" fill="#FAB718"/>
<path d="M22.5384 6.83307L16.9412 6.8383L14.1912 5.16532L11.2812 -0.0498047L22.5384 6.83307Z" fill="#ED6F26"/>
<path d="M14.2066 18.8301V15.4792L11.2812 13.7158L11.2829 24.0505L14.2066 18.8301Z" fill="#63B22F"/>
<path d="M16.9341 17.1696L5.91836 10.413L3 5.19629L22.526 17.1627L16.9341 17.1696Z" fill="#1487C9"/>
<path d="M11.2812 24.0502L14.2046 18.8299L16.9326 17.1689L22.5245 17.1621L11.2812 24.0502Z" fill="#017F36"/>
<path d="M3 18.8014L11.3012 13.7162L8.51036 12.0039L5.91515 13.5949L3 18.8014Z" fill="#984995"/>
</g>
<defs>
<clipPath id="clip0_615_15198">
<rect width="24" height="24" fill="white"/>
</clipPath>
</defs>
</svg>
