<svg width="24" height="25" viewBox="0 0 24 25" fill="none" xmlns="http://www.w3.org/2000/svg">
<path d="M22.6189 9.54824C22.5016 9.18691 22.1882 8.92291 21.8122 8.86824L15.6522 7.97357L12.8976 2.39091C12.5616 1.70824 11.4402 1.70824 11.1042 2.39091L8.34957 7.97224L2.18957 8.86691C1.81357 8.92157 1.50024 9.18557 1.3829 9.54691C1.26557 9.90824 1.3629 10.3069 1.63624 10.5722L6.09357 14.9162L5.04024 21.0509C4.97624 21.4269 5.12957 21.8056 5.43757 22.0296C5.74557 22.2522 6.1549 22.2816 6.4909 22.1056L12.0002 19.2082L17.5096 22.1056C17.6562 22.1829 17.8149 22.2202 17.9749 22.2202C18.1816 22.2202 18.3882 22.1562 18.5629 22.0296C18.8709 21.8056 19.0256 21.4269 18.9602 21.0509L17.9069 14.9162L22.3642 10.5722C22.6376 10.3069 22.7349 9.90824 22.6176 9.54691L22.6189 9.54824Z" fill="#AD2950"/>
</svg>
