<svg width="18" height="18" viewBox="0 0 18 18" fill="none" xmlns="http://www.w3.org/2000/svg">
<path d="M9 4.27783V9.00005L12.6111 11.5001" stroke="#AD2950" stroke-width="1.5" stroke-linecap="round" stroke-linejoin="round"/>
<path d="M9 0.944824C13.4489 0.944824 17.0556 4.55149 17.0556 9.00038C17.0556 13.4493 13.4489 17.0559 9 17.0559" stroke="#AD2950" stroke-width="1.5" stroke-linecap="round" stroke-linejoin="round"/>
<path d="M3.3033 15.5299C3.76354 15.5299 4.13664 15.1569 4.13664 14.6966C4.13664 14.2364 3.76354 13.8633 3.3033 13.8633C2.84307 13.8633 2.46997 14.2364 2.46997 14.6966C2.46997 15.1569 2.84307 15.5299 3.3033 15.5299Z" fill="#AD2950"/>
<path d="M0.944417 9.83366C1.40465 9.83366 1.77775 9.46056 1.77775 9.00033C1.77775 8.54009 1.40465 8.16699 0.944417 8.16699C0.48418 8.16699 0.111084 8.54009 0.111084 9.00033C0.111084 9.46056 0.48418 9.83366 0.944417 9.83366Z" fill="#AD2950"/>
<path d="M3.3033 4.13688C3.76354 4.13688 4.13664 3.76379 4.13664 3.30355C4.13664 2.84331 3.76354 2.47021 3.3033 2.47021C2.84307 2.47021 2.46997 2.84331 2.46997 3.30355C2.46997 3.76379 2.84307 4.13688 3.3033 4.13688Z" fill="#AD2950"/>
<path d="M5.91781 17.2756C6.37804 17.2756 6.75114 16.9025 6.75114 16.4422C6.75114 15.982 6.37804 15.6089 5.91781 15.6089C5.45757 15.6089 5.08447 15.982 5.08447 16.4422C5.08447 16.9025 5.45757 17.2756 5.91781 17.2756Z" fill="#AD2950"/>
<path d="M1.5577 12.9157C2.01794 12.9157 2.39103 12.5426 2.39103 12.0824C2.39103 11.6221 2.01794 11.249 1.5577 11.249C1.09746 11.249 0.724365 11.6221 0.724365 12.0824C0.724365 12.5426 1.09746 12.9157 1.5577 12.9157Z" fill="#AD2950"/>
<path d="M1.5577 6.75114C2.01794 6.75114 2.39103 6.37804 2.39103 5.91781C2.39103 5.45757 2.01794 5.08447 1.5577 5.08447C1.09746 5.08447 0.724365 5.45757 0.724365 5.91781C0.724365 6.37804 1.09746 6.75114 1.5577 6.75114Z" fill="#AD2950"/>
<path d="M5.91781 2.39128C6.37804 2.39128 6.75114 2.01818 6.75114 1.55794C6.75114 1.09771 6.37804 0.724609 5.91781 0.724609C5.45757 0.724609 5.08447 1.09771 5.08447 1.55794C5.08447 2.01818 5.45757 2.39128 5.91781 2.39128Z" fill="#AD2950"/>
</svg>
