<svg width="28" height="24" viewBox="0 0 28 24" fill="none" xmlns="http://www.w3.org/2000/svg">
<g clip-path="url(#clip0_617_16419)">
<path d="M9.67681 17.8665C9.67681 17.8665 9.97134 17.746 9.99812 17.659L9.95796 17.5613C9.93052 17.497 9.93386 17.4274 9.98808 17.3899L10.3054 17.1697L10.8362 17.2721C10.8362 17.2721 10.7398 17.1516 10.7492 16.9909L10.2431 16.8838L9.76517 17.175C9.68178 17.2369 9.6215 17.3249 9.59396 17.425C9.56642 17.5251 9.5732 17.6315 9.61322 17.7273L9.67681 17.8672L9.67681 17.8665ZM13.4299 19.2535C13.5243 19.2495 13.6301 19.2481 13.7445 19.2481C13.7445 19.2481 14.0177 18.4482 14.0331 18.4228C13.8302 18.3281 13.6323 18.2234 13.44 18.1088C13.521 18.2306 13.7178 18.3692 13.6789 18.4763L13.4299 19.2535ZM13.5926 9.92133C13.1869 10.3243 12.798 10.4736 12.4506 10.5084C12.387 10.5153 12.3231 10.5189 12.2592 10.5191H12.2505C12.1227 10.5191 11.9952 10.5056 11.8702 10.4789C11.8475 10.5693 11.8187 10.7588 11.901 10.9381C11.9746 11.1008 12.1239 11.222 12.3422 11.303L12.4158 11.3317L12.4165 11.4107C12.4165 11.4342 12.4339 11.9469 12.9922 12.0895C13.0832 11.9958 13.1662 11.9108 13.2264 11.8392C13.1126 11.5707 13.1729 11.2963 13.3382 11.1617C13.3315 11.1905 13.2579 11.8632 13.7968 12.1136L13.8858 12.1558L13.859 12.2501C13.8503 12.2789 13.6709 12.9302 14.3236 13.1726L14.4387 13.2167L14.3871 13.3285C14.3758 13.3533 14.1201 13.9444 14.7225 14.2804H16.0285V13.2408C15.5639 13.1839 15.3678 12.8098 15.3169 12.5447C15.1007 12.5079 14.934 12.4148 14.8196 12.2629C14.5451 11.9014 14.7807 11.57 14.7841 11.552C14.7834 11.5546 14.7841 11.9067 15.001 12.125C15.1087 12.2294 15.2359 12.3111 15.4294 12.3291L15.5238 12.3378L15.5318 12.4349C15.5338 12.4556 15.5854 12.9329 16.0285 13.0079L16.0278 10.8859C16.0278 10.5566 16.1236 10.2259 16.2387 9.92065H13.5925L13.5926 9.92133ZM10.0764 10.894L10.0415 12.2448L10.1955 12.2689L10.5704 10.9723L10.3796 10.5733L10.077 10.894H10.0764ZM10.889 15.897C10.8787 15.8967 10.8686 15.8942 10.8593 15.8899C10.8499 15.8855 10.8416 15.8793 10.8348 15.8716C10.8279 15.8639 10.8227 15.8548 10.8195 15.845C10.8163 15.8353 10.8151 15.8249 10.816 15.8147C10.8166 15.8045 10.8192 15.7946 10.8237 15.7855C10.8282 15.7763 10.8345 15.7682 10.8421 15.7615C10.8498 15.7549 10.8587 15.7498 10.8684 15.7466C10.878 15.7434 10.8882 15.7422 10.8984 15.743C10.9425 15.7451 10.9733 15.7832 10.972 15.8247C10.9705 15.8452 10.9609 15.8644 10.9453 15.8779C10.9298 15.8914 10.9096 15.8983 10.889 15.897ZM14.2104 17.0932C14.2217 17.0932 14.2351 17.0945 14.2472 17.0979C14.4815 17.1648 14.5397 18.0069 14.9487 18.0819C14.9889 18.0906 15.0263 18.0926 15.0585 18.0926C15.177 18.0926 15.2472 18.0424 15.3236 17.952C15.3236 17.952 15.1174 17.6287 14.9634 17.4098C14.7592 17.1233 14.6006 16.7772 14.2197 16.7772C14.2103 16.7772 14.1996 16.7772 14.1896 16.7786C14.1171 16.7815 14.0469 16.8052 13.9874 16.8469C13.8603 16.7628 13.7115 16.7174 13.559 16.7163C13.3214 16.7163 13.1353 16.8261 13.0422 16.8261H13.0389L12.1888 16.7418C12.0556 16.7284 11.9505 16.5945 11.9123 16.5423L11.8976 16.5195C11.8976 16.4961 11.8976 16.4727 11.8962 16.4519C11.8675 15.7551 11.3293 15.4572 11.1372 15.4518C11.1372 15.4518 11.1599 15.3193 11.1084 15.2691L10.9209 15.4967L10.3051 15.1874L10.7442 15.7015L10.3727 16.1199C10.3258 16.1674 10.3319 16.2317 10.3513 16.2591L10.5119 16.4011L10.7154 16.2772C10.7255 16.2699 10.7442 16.2672 10.767 16.2672C10.8232 16.2672 10.9076 16.2819 10.9832 16.2819C11.0669 16.2819 11.1385 16.2645 11.1472 16.1862C11.1218 16.4446 10.8821 16.8937 11.0394 17.2465L11.1559 17.5129L10.4042 17.4045L10.0521 17.9996C9.94363 18.1977 9.92622 18.4119 10.0306 18.5284L10.1625 18.6937C10.1625 18.6937 10.3473 18.4976 10.3881 18.3684L10.3285 18.3028C10.2783 18.2473 10.281 18.1977 10.3118 18.1381L10.5327 17.7713L11.4196 17.9808L11.4665 17.9005C11.5267 17.8001 11.6138 17.7706 11.7088 17.7706C11.7483 17.7706 11.7885 17.7753 11.83 17.782C11.9947 17.8148 12.2658 17.8583 12.5369 17.8583C12.8348 17.8583 13.13 17.8048 13.2872 17.6287C13.6086 18.106 14.2605 18.1816 14.209 18.4246L14.0377 19.2426C14.1514 19.2373 14.2606 19.2299 14.3643 19.2158L14.5276 18.365C14.5409 18.2928 14.5525 18.2203 14.5625 18.1475C14.4995 18.0832 14.3476 17.9487 14.2612 17.7847C14.1468 17.5631 14.209 17.4473 14.1019 17.1595C14.1019 17.1595 14.1354 17.0925 14.2104 17.0925L14.2104 17.0932ZM22.0831 14.3085C21.3936 13.9671 20.9585 13.0634 20.8527 12.7381C20.7389 14.5307 19.8654 15.7743 18.8446 16.9712C18.3144 17.5924 18.1297 18.1962 18.1297 18.1962C18.1297 18.1962 18.2321 17.5121 18.6899 16.9552C19.6425 15.8092 20.5475 14.3819 20.6151 12.7312C20.6613 11.5798 20.3661 10.646 19.9042 9.87636C20.1626 10.6776 20.1258 11.6596 19.2495 12.5759C19.2495 12.5759 20.9947 10.482 18.5554 8.3346C17.5794 7.51795 16.5111 7.0132 15.9615 6.65575C17.9476 7.30507 18.918 6.59015 18.918 6.59015C18.2834 7.14104 17.4621 7.13168 16.9527 7.05203C17.0913 7.11963 17.2352 7.19059 17.3891 7.27293C19.0646 8.18464 20.5696 9.68469 20.8267 11.7612V11.7451C21.2155 13.7847 22.0831 14.3081 22.0831 14.3081L22.0831 14.3085ZM22.5932 11.9321C22.6086 11.9334 22.622 11.9334 22.6374 11.9334C23.5712 11.9334 23.8871 10.9313 23.8871 10.9313H23.869C23.6977 10.9313 22.3093 10.8911 21.3279 9.64137C20.6826 8.82004 20.1531 8.09774 19.1074 7.81392L19.0043 7.79517L18.9823 7.69008C18.9535 7.53009 19.0626 7.38014 19.3116 7.21884C20.7541 6.27233 19.7735 5.06474 19.7735 5.06474C19.7735 5.06474 19.3625 6.03 18.4407 6.03L18.3717 6.02865C18.2673 6.0233 18.1662 6.01995 18.0645 5.99786L17.8945 5.96439C17.8945 5.96439 18.1575 5.24814 17.523 4.59147C17.0457 4.09477 16.464 4.01043 16.1286 4.01043C15.9592 4.01043 15.8521 4.03252 15.8521 4.03252C16.1708 4.44954 16.4011 5.14238 16.0329 5.56946C15.7149 5.9363 14.9384 5.95437 14.9384 6.50193C14.9384 6.73355 15.1547 7.00399 15.5429 7.24696C16.7103 7.98331 17.869 8.96061 18.3509 10.2705C18.9533 11.9038 18.2746 12.9882 17.3067 13.6101C17.3067 13.6101 17.6106 13.8899 18.0503 13.926C18.14 13.9347 18.2277 13.9388 18.3094 13.9388C19.2392 13.9388 19.7198 13.5016 19.7198 13.5016C19.7198 13.5016 19.6402 14.1054 19.1575 14.6657C18.7103 15.1825 18.1247 15.4877 17.231 15.5004C17.231 15.5004 17.2029 15.9155 17.5985 16.2756C17.8522 16.5025 18.4366 16.5768 18.4366 16.5768C18.4366 16.5768 17.3415 16.7984 17.2203 18.419C17.1547 19.2972 16.9311 19.6018 16.9311 19.6018H16.9505C19.4916 19.6018 19.4266 17.4183 19.4266 17.4183C19.4266 17.4183 19.6033 18.0649 20.3122 18.2336C20.3979 18.2563 20.4896 18.265 20.5766 18.265C20.8042 18.265 21.003 18.2115 21.003 18.2115C21.003 18.2115 20.6315 17.4269 20.9997 16.3298C21.3056 15.4188 21.256 14.744 21.256 14.744C21.256 14.744 21.5981 15.2628 22.4476 15.2675H22.4563C22.6569 15.2706 22.8551 15.223 23.0325 15.1292C23.2099 15.0354 23.3607 14.8983 23.4711 14.7307C21.7769 14.0258 21.9442 11.7518 21.9442 11.7518C21.9442 11.7518 22.1638 11.9164 22.5929 11.9325L22.5932 11.9321ZM5.66477 16.9713C4.64395 15.7745 3.77038 14.5308 3.65525 12.7382C3.55015 13.0642 3.11573 13.9679 2.42693 14.3086C2.42693 14.3086 3.29314 13.7851 3.68203 11.7457V11.7617C3.93975 9.68528 5.44455 8.18525 7.12003 7.27421C7.27399 7.19054 7.41859 7.12025 7.55583 7.05331C7.04707 7.1323 6.22507 7.14167 5.59116 6.59143C5.59116 6.59143 6.56177 7.30567 8.547 6.65636C7.9981 7.01382 6.92974 7.51854 5.95428 8.33521C3.51444 10.4826 5.25946 12.5765 5.25946 12.5765C4.38255 11.6594 4.3464 10.6788 4.60479 9.87697C4.14291 10.6468 3.84703 11.5806 3.89523 12.7327C3.9615 14.3828 4.86583 15.8098 5.8164 16.9567C6.27694 17.5123 6.38069 18.1965 6.38069 18.1965C6.38069 18.1965 6.19326 17.5933 5.66443 16.9721L5.66477 16.9713ZM6.07311 16.5764C6.07311 16.5764 6.65751 16.5028 6.91119 16.2752C7.30613 15.9157 7.2787 15.5007 7.2787 15.5007C6.38439 15.488 5.79934 15.1827 5.35015 14.666C4.86953 14.1057 4.7892 13.5019 4.7892 13.5019C4.7892 13.5019 5.26983 13.939 6.19829 13.939C6.28196 13.939 6.36898 13.935 6.45802 13.9263C6.73273 13.8985 6.99265 13.7883 7.20372 13.6103C6.23443 12.9885 5.55569 11.904 6.15747 10.27C6.63943 8.96136 7.79748 7.98343 8.96643 7.24649C9.354 7.00416 9.56955 6.73373 9.56955 6.50213C9.56955 5.95457 8.79439 5.93649 8.47644 5.56965C8.10828 5.14257 8.33922 4.44977 8.65718 4.03272C8.65718 4.03272 8.55074 4.01063 8.38072 4.01063C8.04602 4.01063 7.46433 4.09497 6.98637 4.59167C6.35044 5.24903 6.61485 5.96526 6.61485 5.96526L6.44482 5.99873C6.34375 6.01948 6.24133 6.0235 6.13691 6.02952L6.06997 6.03019C5.14621 6.03019 4.73585 5.06561 4.73585 5.06561C4.73585 5.06561 3.75653 6.27252 5.19905 7.21903C5.44671 7.38036 5.55584 7.53099 5.52704 7.69027L5.50495 7.7947L5.39985 7.81344C4.35626 8.09794 3.82677 8.82022 3.18024 9.64157C2.1989 10.8913 0.812013 10.9315 0.639837 10.9315H0.621094C0.621094 10.9315 0.937702 11.9336 1.87219 11.9336C1.88692 11.9336 1.9003 11.9336 1.91637 11.9322C2.34544 11.9169 2.56569 11.7522 2.56569 11.7522C2.56569 11.7522 2.7317 14.026 1.03814 14.7311C1.03814 14.7311 1.34673 15.2686 2.05363 15.2686H2.06166C2.91179 15.2632 3.25319 14.7444 3.25319 14.7444C3.25319 14.7444 3.20365 15.4198 3.50821 16.3302C3.87637 17.428 3.50687 18.2112 3.50687 18.2112C3.50687 18.2112 3.70434 18.2648 3.9326 18.2648C4.02096 18.2648 4.11133 18.2567 4.19634 18.234C4.90456 18.0653 5.08194 17.4187 5.08194 17.4187C5.08194 17.4187 5.01701 19.6022 7.5585 19.6022H7.57724C7.57724 19.6022 7.35433 19.2976 7.28941 18.4194C7.16892 16.7995 6.07244 16.5765 6.07244 16.5765L6.07311 16.5764ZM11.6807 8.53015H12.8789V8.94182C12.7384 8.76912 12.4639 8.80459 12.4639 8.80459V9.39836C12.4639 9.39836 12.4733 9.69022 12.5764 9.81672H11.9833C12.087 9.69021 12.0957 9.39836 12.0957 9.39836V8.80459C12.0957 8.80459 11.8226 8.76912 11.6807 8.94182L11.6807 8.53015ZM10.3754 8.59173C10.4169 8.63658 10.4577 8.68545 10.4972 8.73431C10.5066 8.74569 10.5153 8.75573 10.5247 8.76912C10.5615 8.81732 10.5983 8.86953 10.6338 8.92174L10.6579 8.95722C10.7001 9.02148 10.7402 9.08775 10.7804 9.1567C11.1472 9.79061 11.7336 10.1695 12.2537 10.1702C12.7752 10.1695 13.3609 9.79061 13.7284 9.1567C13.7692 9.08641 13.8101 9.01814 13.8529 8.95387C13.9018 8.879 13.954 8.80641 14.0095 8.73632C14.0504 8.68544 14.0925 8.63591 14.1354 8.59039C14.1427 8.5837 14.1488 8.57634 14.1561 8.57031C14.3436 8.37886 14.5651 8.23294 14.857 8.15194L14.7271 8.0763H14.7204L14.2037 7.7764L13.6742 7.47181L12.2577 8.2443L12.2537 8.24096L12.2517 8.2443L10.8353 7.47181L10.3051 7.7764L9.78835 8.0763H9.78232L9.65179 8.15194C9.94298 8.23227 10.1652 8.37686 10.3526 8.56897C10.3607 8.57566 10.366 8.58504 10.3754 8.59173ZM12.2537 3.76413C11.3768 3.7648 10.7188 4.05264 10.5755 4.39202L12.2537 5.05473L13.9326 4.39202C13.7906 4.05264 13.1326 3.7648 12.2537 3.76413ZM12.2718 21.3283H12.2383C11.7068 21.3316 10.9738 21.2225 10.6217 21.1188L10.1973 22.2695C10.4771 22.3692 11.425 22.5607 12.2557 22.5607C13.0851 22.5607 14.0336 22.3692 14.3128 22.2695L13.8891 21.1194C13.5349 21.2225 12.8033 21.3316 12.2718 21.3283ZM15.4827 20.1836C15.1668 20.363 14.4619 20.6321 14.0516 20.7566L14.3956 21.7071C15.0302 21.5331 15.5544 21.3303 15.9868 21.1127L15.2719 20.8751L15.4827 20.1836ZM9.0265 20.1836L9.23803 20.8751L8.52244 21.1127C8.9542 21.3303 9.48033 21.5331 10.1129 21.7065L10.4577 20.756C10.048 20.6315 9.34179 20.363 9.0265 20.1836ZM12.2535 2.66433C12.9156 2.66433 13.5635 2.82298 14.0629 3.10077C14.1084 2.94815 14.172 2.76206 14.2584 2.56728L14.0696 2.59004L13.8721 2.61012L13.7884 2.43005L13.5354 1.89655L13.0762 2.1362L12.8968 2.22724L12.7536 2.08667L12.2535 1.59131L11.7548 2.08667L11.6123 2.22724L11.4335 2.1362L10.9716 1.89655L10.722 2.43005L10.637 2.61079L10.4388 2.59004L10.2514 2.56728C10.3377 2.76207 10.4007 2.94818 10.4469 3.10077C10.9476 2.82297 11.5955 2.66433 12.2542 2.66433H12.2535ZM22.3513 8.83425C22.4377 8.8637 22.5247 8.87709 22.611 8.87709C22.9859 8.87709 23.3474 8.63409 23.4712 8.35697C23.4712 8.35697 22.7851 8.31546 22.0474 7.56506C21.8131 7.32273 21.5641 7.24977 21.3512 7.24977C21.0199 7.24977 20.7709 7.42448 20.7709 7.42448C21.6625 7.89976 21.8439 8.66289 22.3513 8.83425ZM1.89802 8.87642C1.98504 8.87642 2.07206 8.86371 2.15573 8.83358C2.66448 8.66222 2.84789 7.89977 3.7375 7.42517C3.7375 7.42517 3.4885 7.24978 3.15915 7.24978C2.94494 7.24978 2.69659 7.32208 2.46096 7.56574C1.72397 8.31546 1.03848 8.35765 1.03848 8.35765C1.16165 8.6341 1.52379 8.8771 1.89799 8.8771L1.89802 8.87642ZM11.8031 5.91314V6.30139L11.7288 6.26658C11.7254 6.2639 11.6156 6.23981 11.4262 6.08852C11.1122 5.84485 11.1062 5.61995 11.1062 5.61995L11.8024 5.91315L11.8031 5.91314ZM12.131 7.73189V5.32061L10.5995 4.79981L11.0038 7.13606L12.1317 7.73184L12.131 7.73189ZM12.7067 5.91314L13.4029 5.61994C13.4029 5.61994 13.3975 5.84486 13.0823 6.08851C12.8928 6.23912 12.7837 6.2639 12.7804 6.26657L12.7067 6.30071L12.7067 5.91314ZM13.5053 7.13681L13.9076 4.80055L12.3767 5.32068V7.73196L13.5053 7.13618L13.5053 7.13681ZM9.96485 13.3214C10.1141 13.3749 10.2949 13.3863 10.3879 13.3863C10.3912 13.3749 10.3966 13.3609 10.4013 13.3435C10.4086 13.3167 10.4167 13.2886 10.4227 13.2591C10.4488 13.1252 10.4575 12.9746 10.4602 12.8769C10.3746 12.826 10.3048 12.7523 10.2587 12.664C10.2018 12.5442 10.1208 12.488 10.0023 12.488C9.84838 12.488 9.68304 12.5817 9.61143 12.6245C9.5552 12.9579 9.80087 13.2605 9.96487 13.3207L9.96485 13.3214ZM13.3532 12.0421C13.0693 12.3521 12.5117 12.8923 12.4849 12.919L12.4515 12.9525L10.691 12.9251C10.6895 13.0707 10.6706 13.2157 10.6348 13.3568L10.6207 13.4124L12.7139 13.7899C12.9314 13.6373 13.5305 13.1989 13.7635 13.0268C13.5941 12.7792 13.5781 12.4853 13.6162 12.2791C13.5157 12.2156 13.4268 12.1355 13.3532 12.0421Z" fill="#FFFFFE"/>
<path d="M16.0303 14.5094H8.48277V17.3537C8.48277 18.5171 9.32287 19.2447 10.5632 19.2447C11.5988 19.2447 11.8719 19.2849 12.2568 19.6684C12.5225 19.4027 12.7421 19.3043 13.1939 19.2668L13.204 19.2233L13.4416 18.4863C13.4282 18.4695 13.04 18.0271 13.04 18.0271C12.886 18.0786 12.7562 18.0873 12.5379 18.0873C12.315 18.0873 12.0627 18.0605 11.7889 18.0097C11.7632 18.0036 11.737 18.0004 11.7106 18.0003C11.6771 18.0003 11.6751 18.003 11.6657 18.0197L11.6189 18.098L11.5318 18.2413L11.3692 18.2031L10.6449 18.0324L10.5451 18.1964L10.5605 18.2145L10.6482 18.3116L10.6094 18.4387C10.5559 18.6041 10.3832 18.7975 10.3303 18.8511L10.1495 19.0452L9.98419 18.837L9.86035 18.6811C9.72982 18.5351 9.6997 18.3116 9.77333 18.0773C9.77118 18.0788 9.76863 18.0798 9.76597 18.08L9.5618 18.165L9.4701 17.9641L9.40516 17.8229C9.34284 17.6784 9.33162 17.517 9.37336 17.3652C9.4151 17.2135 9.50731 17.0805 9.63477 16.9882L10.2172 16.6582L10.7728 16.7673C10.7861 16.7137 10.8062 16.5236 10.8216 16.4748C10.8109 16.4734 10.8009 16.4714 10.7902 16.4714L10.4702 16.5906L10.1623 16.3777C10.1623 16.3777 10.0418 16.2612 10.1509 16.1447L10.4488 15.6915L9.69237 14.741L10.8551 15.219L10.9328 15.1232L11.0894 14.9345L11.2675 15.1045C11.3143 15.1503 11.3468 15.2086 11.3612 15.2725C11.6811 15.3977 12.2555 15.7665 12.3064 16.3663L12.127 16.4379V16.4426C12.1678 16.4915 12.2019 16.5115 12.2126 16.5136L13.0427 16.5952C13.0641 16.5912 13.0895 16.5818 13.119 16.5738C13.2228 16.5383 13.3774 16.4868 13.5608 16.4868C13.7108 16.4868 13.8553 16.5216 13.9939 16.5872C14.0455 16.5671 14.1077 16.5531 14.1813 16.5484L14.2215 16.547C14.6653 16.547 14.8862 16.8797 15.0636 17.1454C15.093 17.1916 15.1225 17.2345 15.1533 17.2773C15.3086 17.4969 15.5114 17.8175 15.5195 17.8316L15.6112 17.9741L15.4987 18.1053C15.413 18.2058 15.2825 18.3229 15.0603 18.3229C15.0099 18.3225 14.9597 18.3173 14.9103 18.3075C14.8648 18.2988 14.8203 18.2851 14.7778 18.2667C14.771 18.3139 14.7631 18.361 14.7543 18.4079L14.6091 19.169C15.4793 18.9548 16.0322 18.2961 16.0322 17.3536L16.0303 14.5094ZM8.48277 14.2805H14.3534C14.0602 13.9766 14.0649 13.593 14.1392 13.3433C14.06 13.3053 13.9864 13.2566 13.9203 13.1987C13.6907 13.3681 12.9905 13.8788 12.8078 14.0073L12.7683 14.0341L10.4642 13.6164H10.4174C10.3625 13.6164 10.2815 13.6144 10.1931 13.603C10.1837 13.6453 10.1621 13.684 10.1312 13.7143C10.1002 13.7447 10.0611 13.7654 10.0186 13.7739C9.9761 13.7825 9.93203 13.7786 9.89172 13.7626C9.85141 13.7467 9.81659 13.7194 9.79147 13.684C9.77383 13.6599 9.76119 13.6325 9.75429 13.6034C9.74739 13.5743 9.74638 13.5442 9.75131 13.5147L9.76001 13.4645C9.52304 13.2971 9.30284 12.9223 9.40054 12.5273L9.40991 12.4858L9.44338 12.4617C9.47716 12.4387 9.51201 12.4172 9.54781 12.3975L9.38046 12.3707C9.35074 12.3656 9.32418 12.3491 9.30643 12.3247C9.28868 12.3003 9.28114 12.27 9.28541 12.2401C9.29612 12.1772 9.35435 12.133 9.41661 12.1444L9.81489 12.2073L9.8517 10.8009L10.4448 10.1717L10.8156 10.9529L10.4247 12.3064L10.7768 12.362C10.8069 12.3669 10.8338 12.3836 10.8516 12.4083C10.8694 12.433 10.8767 12.4638 10.8719 12.4939C10.8676 12.5205 10.8539 12.5447 10.8332 12.5622C10.8126 12.5796 10.7864 12.5891 10.7594 12.5889L10.7414 12.5882L10.4542 12.5414C10.4582 12.5507 10.4635 12.5554 10.4676 12.5648C10.4995 12.6202 10.5476 12.6646 10.6055 12.692L12.3613 12.7208C12.4356 12.6478 12.6197 12.4671 12.8098 12.2756C12.6443 12.2149 12.499 12.1092 12.3903 11.9705C12.2815 11.8319 12.2135 11.6656 12.1939 11.4904C11.953 11.3873 11.7856 11.2334 11.6932 11.0326C11.5808 10.7836 11.6209 10.5345 11.6511 10.4134C11.4168 10.3284 11.1704 10.1717 10.9187 9.92139H8.27344C8.38724 10.2266 8.48296 10.5573 8.48296 10.886V14.2798L8.48277 14.2805Z" fill="#FFE52B"/>
<path d="M12.2553 5.05612L10.5771 4.39207C10.7197 4.05335 11.3777 3.76552 12.2553 3.76485C13.1336 3.76552 13.7916 4.05335 13.9342 4.39207L12.2553 5.05612ZM13.5064 7.13726L12.3785 7.73303V5.32055L13.9094 4.79975L13.5064 7.13601L13.5064 7.13726ZM14.2053 7.77719L14.7207 8.0771H14.7281L14.858 8.15274C14.5668 8.23306 14.3438 8.37967 14.1571 8.57111L14.137 8.59119C14.093 8.63818 14.0508 8.68686 14.0105 8.73711L13.9871 8.76791C13.9469 8.81945 13.9088 8.87233 13.8733 8.92722L13.8539 8.95466C13.8105 9.02095 13.7692 9.08859 13.73 9.15749C13.3619 9.7914 12.7762 10.1703 12.2554 10.1716C11.7346 10.1703 11.1482 9.7914 10.7813 9.15749C10.7423 9.08989 10.7015 9.02337 10.6588 8.95801L10.6347 8.92254C10.5998 8.87084 10.5636 8.81996 10.5263 8.76991C10.5169 8.75653 10.5082 8.74649 10.4989 8.73511C10.4596 8.68628 10.4187 8.63873 10.3764 8.59252C10.3677 8.58583 10.3616 8.57713 10.3536 8.56977C10.1623 8.36949 9.92 8.22529 9.65275 8.15274L9.78395 8.0771H9.78931L10.3067 7.7772L10.8362 7.47261L12.2527 8.2451L12.2553 8.24242L12.2594 8.2451L13.6751 7.47261L14.2053 7.77719ZM16.2402 9.92193C16.1244 10.2272 16.0287 10.5579 16.0287 10.8865L16.0301 13.0085C15.5876 12.9349 15.5347 12.4569 15.5333 12.4362L15.5253 12.3391L15.4296 12.3304C15.2673 12.3161 15.1156 12.2436 15.0025 12.1262C14.785 11.9087 14.785 11.5566 14.785 11.5532C14.7823 11.5713 14.5466 11.9013 14.8198 12.2628C14.9349 12.4154 15.1022 12.5098 15.3178 12.5466C15.3687 12.811 15.5654 13.1852 16.03 13.2428V14.2804H14.7241C14.1216 13.945 14.3766 13.3546 14.3887 13.3292L14.4396 13.2167L14.3244 13.1732C13.6718 12.9309 13.8519 12.2789 13.8606 12.2508L13.8873 12.1557L13.7976 12.1142C13.2595 11.8639 13.3324 11.1905 13.3398 11.1624C13.1738 11.2969 13.1142 11.5707 13.228 11.8405C13.1664 11.9114 13.0834 11.9964 12.993 12.0901C12.8358 12.0558 12.6942 11.9706 12.5902 11.8479C12.4861 11.7251 12.4254 11.5714 12.4174 11.4107L12.4167 11.3317L12.343 11.3036C12.1255 11.2233 11.9762 11.1014 11.9019 10.9388C11.8196 10.7587 11.8484 10.5706 11.8711 10.4789C11.9962 10.5048 12.1236 10.5183 12.2513 10.5191H12.26C12.325 10.5191 12.3886 10.515 12.4515 10.509C12.7996 10.4742 13.1878 10.3249 13.5935 9.92196L16.2402 9.92193ZM14.6082 19.1696L14.7542 18.4085L14.7776 18.2679C14.8677 18.3032 14.9633 18.322 15.0601 18.3235C15.2823 18.3235 15.4122 18.2057 15.4985 18.106L15.6096 17.9754L15.5186 17.8322C15.5106 17.8181 15.3078 17.4975 15.1524 17.2779C15.1216 17.2345 15.0919 17.1903 15.0634 17.1454C14.886 16.8803 14.6645 16.5476 14.22 16.5476L14.1805 16.549C14.1165 16.5524 14.0533 16.5653 13.9931 16.5871C13.8578 16.5224 13.7099 16.4886 13.56 16.488C13.4091 16.4917 13.26 16.5206 13.1188 16.5737C13.0894 16.5824 13.0626 16.5918 13.0418 16.5958L12.2118 16.5141C12.2011 16.5115 12.1676 16.4914 12.1261 16.4432V16.4385L12.3055 16.3669C12.2553 15.7671 11.6803 15.3983 11.3603 15.2731C11.3461 15.209 11.3136 15.1503 11.2666 15.1044L11.0885 14.9351L10.9319 15.1232L10.8549 15.2196L9.69152 14.7409L10.4479 15.6921L10.15 16.1453C10.0403 16.2611 10.1614 16.3783 10.1614 16.3783L10.4693 16.5911L10.7893 16.4713C10.8 16.4713 10.8094 16.474 10.8208 16.4753C10.8054 16.5242 10.7853 16.715 10.7719 16.7679L10.217 16.6588L9.63459 16.9888C9.33401 17.2097 9.29321 17.5738 9.40498 17.8235L9.46924 17.9654L9.56095 18.1656L9.76511 18.0812C9.76846 18.0799 9.77114 18.0792 9.77315 18.0772C9.69951 18.3122 9.72964 18.535 9.86017 18.6817L9.98401 18.8376L10.1487 19.0465L10.3294 18.8517C10.383 18.7981 10.5557 18.6047 10.6086 18.4387L10.6474 18.3121L10.5597 18.2151L10.545 18.197L10.644 18.033L11.3683 18.2044L11.5317 18.2419L11.6187 18.0979L11.6655 18.0203C11.6742 18.0036 11.6763 18.0009 11.7097 18.0009C11.7358 18.0009 11.7613 18.0036 11.7887 18.0103C12.0357 18.059 12.2867 18.0848 12.5384 18.0872C12.7546 18.0872 12.8852 18.0792 13.0391 18.0277C13.0391 18.0277 13.428 18.4695 13.4414 18.4869L13.2031 19.2232L13.1924 19.2674C12.7419 19.3042 12.5223 19.4033 12.2566 19.669C11.871 19.2861 11.5986 19.2453 10.563 19.2453C9.32266 19.2453 8.4819 18.5177 8.4819 17.3536V14.5101H16.0299L16.0312 17.3536C16.0312 18.2968 15.4785 18.9547 14.6082 19.1696ZM9.9592 17.5617L9.99869 17.6601C9.97192 17.7458 9.67738 17.8676 9.67738 17.8676L9.61446 17.7277C9.57426 17.6319 9.56739 17.5253 9.59494 17.425C9.62249 17.3248 9.68287 17.2367 9.76641 17.1748L10.2437 16.8836L10.7504 16.9907C10.7404 17.1521 10.8368 17.2725 10.8368 17.2725L10.3066 17.1708L9.98865 17.3904C9.93509 17.4278 9.93108 17.4975 9.9592 17.5617ZM14.5278 18.365L14.3652 19.2158C14.2607 19.2305 14.151 19.2386 14.0385 19.2426L14.2099 18.4259C14.2607 18.1823 13.6101 18.1066 13.2881 17.6294C13.1308 17.8061 12.8356 17.859 12.5384 17.859C12.2666 17.859 11.9962 17.8154 11.8309 17.7826C11.791 17.7757 11.7508 17.7719 11.7104 17.7713C11.6146 17.7713 11.5283 17.8007 11.468 17.9018L11.4212 17.9821L10.5336 17.7726L10.3127 18.1388C10.2819 18.1984 10.2792 18.2479 10.3294 18.3034L10.3896 18.369C10.3481 18.4982 10.1634 18.6944 10.1634 18.6944L10.0315 18.529C9.92708 18.4126 9.94448 18.1984 10.0529 18.0002L10.405 17.4044L11.1568 17.5135L11.0403 17.2465C10.883 16.8937 11.1226 16.4452 11.1481 16.1868C11.1394 16.2651 11.0677 16.2825 10.9847 16.2825C10.9084 16.2825 10.8241 16.2685 10.7678 16.2685C10.7457 16.2685 10.7263 16.2705 10.7163 16.2779L10.5128 16.4017L10.3521 16.2598C10.3327 16.233 10.3267 16.1681 10.3736 16.1199L10.7458 15.7022L10.3066 15.1881L10.9211 15.498L11.1092 15.2698C11.1608 15.3206 11.138 15.4525 11.138 15.4525C11.3301 15.4579 11.869 15.7557 11.8971 16.4519C11.8991 16.4733 11.8991 16.4968 11.8991 16.5202L11.9132 16.5429C11.9513 16.5958 12.0564 16.7304 12.1896 16.7424L13.0398 16.8268H13.0431C13.1368 16.8268 13.3222 16.717 13.5599 16.717C13.6904 16.717 13.8343 16.7505 13.9883 16.8475C13.9883 16.8475 14.0659 16.7859 14.1911 16.7792C14.2005 16.7779 14.2112 16.7779 14.2199 16.7779C14.6015 16.7779 14.7601 17.1233 14.9649 17.4105C15.1189 17.6287 15.3244 17.9527 15.3244 17.9527C15.2488 18.043 15.1778 18.0932 15.0593 18.0932C15.0225 18.0934 14.9857 18.0898 14.9495 18.0825C14.5412 18.0069 14.4816 17.1655 14.2487 17.0985C14.2365 17.0953 14.2239 17.0937 14.2112 17.0939C14.1362 17.0939 14.1034 17.1608 14.1034 17.1608C14.2105 17.448 14.1476 17.5638 14.2628 17.7853C14.3484 17.9493 14.5004 18.0839 14.5633 18.1481C14.5633 18.1481 14.5466 18.2727 14.5279 18.3657L14.5278 18.365ZM13.7453 19.2486C13.6315 19.2486 13.5258 19.2499 13.4307 19.2539L13.6797 18.4768C13.7185 18.369 13.5217 18.2304 13.4407 18.1086C13.5632 18.1863 13.8812 18.3563 14.0345 18.4232C13.9351 18.6973 13.8387 18.9724 13.7453 19.2486ZM10.0421 12.2454L10.0776 10.8946L10.3802 10.5739L10.5703 10.9729L10.1954 12.2695L10.0414 12.2461L10.0421 12.2454ZM10.2597 12.6644C10.3056 12.7524 10.3752 12.8259 10.4605 12.8766C10.4582 13.005 10.4458 13.133 10.4237 13.2595C10.417 13.289 10.4103 13.3164 10.4016 13.3439C10.3976 13.3613 10.3922 13.3753 10.3889 13.3867C10.2958 13.3867 10.1144 13.3753 9.96647 13.3211C9.8018 13.2609 9.55614 12.9583 9.61302 12.6249C9.68397 12.5814 9.84865 12.4884 10.0033 12.4884C10.1217 12.4884 10.2028 12.5446 10.2597 12.6644ZM13.7646 13.0272C13.5323 13.1993 12.9326 13.6377 12.715 13.7903L10.6212 13.4128L10.6359 13.3572C10.6627 13.2481 10.6914 13.0995 10.6928 12.9248L12.4526 12.9529L12.4861 12.9195C12.5129 12.8927 13.0705 12.3525 13.3543 12.0426C13.4219 12.1276 13.5063 12.2079 13.6174 12.2789C13.5799 12.4864 13.5953 12.7796 13.7646 13.0272ZM10.9178 9.92212C11.1701 10.1725 11.4158 10.3284 11.6501 10.4141C11.62 10.5346 11.5798 10.785 11.6923 11.0333C11.7846 11.2341 11.952 11.3881 12.1936 11.4911C12.2204 11.7388 12.3764 12.1117 12.8095 12.2764C12.6194 12.4678 12.4346 12.6485 12.361 12.7208L10.6045 12.6934C10.5465 12.6656 10.4983 12.6208 10.4666 12.5649C10.4632 12.5562 10.4572 12.5515 10.4532 12.5421L10.7404 12.589L10.7585 12.5896C10.7855 12.5898 10.8116 12.5803 10.8323 12.5629C10.8529 12.5455 10.8666 12.5212 10.8709 12.4946C10.8758 12.4646 10.8686 12.4339 10.8509 12.4092C10.8332 12.3845 10.8065 12.3678 10.7765 12.3627L10.4238 12.3065L10.8147 10.9536L10.4445 10.1725L9.85073 10.8017L9.81459 12.2081L9.41563 12.1445C9.35405 12.1324 9.29514 12.178 9.28376 12.2402C9.27931 12.2703 9.28683 12.301 9.30473 12.3257C9.32262 12.3503 9.34946 12.367 9.37949 12.3721L9.54683 12.3975C9.48659 12.4317 9.44709 12.4591 9.44241 12.4624L9.40894 12.4865L9.39957 12.5281C9.30251 12.923 9.52207 13.2979 9.75904 13.4652L9.75034 13.5154C9.74096 13.5757 9.75435 13.6359 9.7905 13.6848C9.81107 13.7144 9.83862 13.7386 9.87071 13.7552C9.9028 13.7718 9.93847 13.7802 9.97458 13.7798C10.0253 13.7794 10.0744 13.7618 10.1139 13.73C10.1534 13.6982 10.181 13.6539 10.1921 13.6044C10.2805 13.6145 10.3615 13.6172 10.4164 13.6172H10.4639L12.7673 14.0342L12.8068 14.0081C12.9903 13.8795 13.6904 13.3688 13.9194 13.1995C13.9829 13.2537 14.0532 13.3032 14.1383 13.3441C14.0639 13.5937 14.0593 13.9773 14.3525 14.2812H8.48182V10.8874C8.48182 10.558 8.3861 10.2273 8.2723 9.92211L10.9178 9.92212ZM10.6005 4.80124L12.1327 5.32137V7.73265L11.0048 7.13687L10.6005 4.80062V4.80124ZM14.3382 4.51005C14.3382 3.92164 13.3495 3.39215 12.2584 3.39215H12.2517C11.1606 3.39215 10.1726 3.92164 10.1726 4.51005L10.194 4.65464L10.6298 7.16024L10.1921 7.41459L9.06012 8.0773H9.06413C9.06413 8.0773 8.80978 8.2085 8.69127 8.28883C8.26018 8.58874 8.16845 9.02649 8.41882 9.20724C8.4804 8.85045 8.76221 8.47759 9.28904 8.47759C9.66927 8.47759 9.95842 8.67439 10.1927 8.96825C10.253 9.04255 10.3099 9.12221 10.3627 9.20723C10.4283 9.315 10.4946 9.41006 10.5595 9.50108H7.64234C7.85654 9.93285 8.06071 10.39 8.06071 10.8867V17.3545C8.06071 18.9195 9.26227 19.6665 10.5622 19.6665C11.567 19.6665 11.7022 19.621 12.2565 20.174C12.808 19.621 12.9439 19.6665 13.9494 19.6665C15.25 19.6665 16.4497 18.9195 16.4497 17.3545V10.8867C16.4497 10.39 16.6539 9.93285 16.8694 9.50108H13.9508C14.0164 9.41005 14.082 9.31499 14.1476 9.20723C14.2011 9.12222 14.258 9.04256 14.3169 8.96825C14.5526 8.67305 14.8417 8.47759 15.2219 8.47759C15.7487 8.47759 16.0299 8.85045 16.0922 9.20724C16.3425 9.0265 16.2521 8.58871 15.8177 8.28883C15.7026 8.2085 15.4469 8.0773 15.4469 8.0773H15.4515L14.3169 7.41459L13.8818 7.16024L14.3169 4.65464L14.3382 4.51005ZM2.46183 7.56645C2.69747 7.32345 2.94579 7.24984 3.16002 7.24984C3.48934 7.24984 3.73904 7.42589 3.73904 7.42589C2.84876 7.90116 2.66533 8.66292 2.1566 8.83498C2.07375 8.8637 1.98657 8.87797 1.89889 8.87715C1.52468 8.87715 1.16254 8.63482 1.03937 8.35837C1.03937 8.35837 1.72481 8.31618 2.46183 7.56645ZM1.89886 9.18237C2.02136 9.18237 2.14119 9.16363 2.25498 9.1248C2.5736 9.01904 2.77712 8.76533 2.99132 8.50025C3.21021 8.23049 3.45653 7.92456 3.88362 7.69697L4.32274 7.46067L3.91441 7.17283C3.88094 7.15208 3.57502 6.94523 3.16002 6.94523C2.81996 6.94523 2.504 7.0838 2.24362 7.35021C1.60971 7.99886 1.04139 8.05106 1.02063 8.05173L0.578815 8.07783L0.759552 8.48415C0.942967 8.88913 1.42227 9.18237 1.89886 9.18237ZM3.89566 12.7327C3.84881 11.5806 4.14332 10.6469 4.60522 9.87693C4.34818 10.6789 4.38298 11.6602 5.26124 12.5774C5.26124 12.5774 3.51546 10.4822 5.95539 8.33613C6.93138 7.51881 7.99906 7.01409 8.54811 6.65661C6.56269 7.30593 5.59275 6.59101 5.59275 6.59101C6.22666 7.1419 7.04801 7.13322 7.55742 7.05289C7.41952 7.1205 7.27494 7.19078 7.12098 7.27446C5.44549 8.1855 3.94145 9.68574 3.68297 11.762V11.7466C3.29408 13.7856 2.42787 14.3091 2.42787 14.3091C3.11734 13.9677 3.55112 13.064 3.65686 12.7386C3.772 14.5313 4.6449 15.7749 5.66504 16.9725C6.1952 17.593 6.38129 18.1962 6.38129 18.1962C6.38129 18.1962 6.27821 17.5127 5.81833 16.9564C4.86781 15.8098 3.96277 14.3827 3.89583 12.7324L3.89566 12.7327ZM11.6813 8.53077V8.94311C11.8232 8.76974 12.0963 8.80522 12.0963 8.80522V9.39898C12.0963 9.39898 12.0876 9.69084 11.9838 9.81735H12.5769C12.4738 9.69083 12.4638 9.39898 12.4638 9.39898V8.80522C12.4638 8.80522 12.7382 8.76974 12.8788 8.94311V8.53077H11.6806H11.6813ZM11.4269 6.08901C11.6164 6.23962 11.7261 6.26506 11.7295 6.26707L11.8031 6.30121V5.91363L11.1069 5.62042C11.1069 5.62042 11.113 5.84535 11.4269 6.08901ZM13.083 6.08901C13.3976 5.84534 13.4043 5.62043 13.4043 5.62043L12.7075 5.91364V6.30189L12.7811 6.26708C12.7844 6.26506 12.8935 6.23963 13.083 6.08901ZM21.3522 7.25039C21.5651 7.25039 21.8141 7.32336 22.0484 7.56635C22.786 8.31607 23.4722 8.35826 23.4722 8.35826C23.3476 8.63471 22.9862 8.87771 22.612 8.87771C22.5256 8.87771 22.4379 8.86433 22.3529 8.8342C21.8448 8.66284 21.6634 7.90039 20.7725 7.42579C20.7725 7.42579 21.0201 7.25039 21.3522 7.25039ZM20.6272 7.69622C21.0536 7.92382 21.3026 8.22971 21.5209 8.50017C21.7351 8.76458 21.9379 9.01895 22.2572 9.12472C22.3697 9.16355 22.4895 9.18229 22.612 9.18229C23.0892 9.18229 23.5692 8.88908 23.7513 8.48343L23.934 8.07779L23.4916 8.05101C23.4708 8.05101 22.9011 7.99813 22.2679 7.35016C22.0068 7.08374 21.6915 6.94452 21.3521 6.94452C20.9371 6.94452 20.6292 7.15203 20.5957 7.17345L20.1887 7.46064L20.6272 7.69622ZM20.8274 11.7467V11.7621C20.5703 9.68564 19.0655 8.18609 17.3898 7.27457C17.2359 7.19157 17.092 7.12061 16.9534 7.05367C17.4628 7.13266 18.2842 7.14203 18.9187 6.59179C18.9187 6.59179 17.9481 7.30603 15.9622 6.65672C16.5111 7.01418 17.5801 7.5189 18.5561 8.33557C20.9947 10.483 19.2503 12.5768 19.2503 12.5768C20.1271 11.6605 20.1633 10.6791 19.9049 9.87733C20.3668 10.6471 20.6613 11.5809 20.6158 12.7331C20.5489 14.3831 19.6432 15.8101 18.6906 16.9571C18.2328 17.5127 18.131 18.1968 18.131 18.1968C18.131 18.1968 18.3158 17.5937 18.8453 16.9731C19.8661 15.7749 20.7397 14.5319 20.8535 12.7393C20.9592 13.0653 21.3943 13.969 22.0838 14.3097C22.0838 14.3097 21.2169 13.7862 20.8273 11.7472L20.8274 11.7467ZM7.55993 19.6026C5.01832 19.6026 5.08337 17.4197 5.08337 17.4197C5.08337 17.4197 4.9053 18.0664 4.19777 18.2344C4.11134 18.2561 4.02248 18.2667 3.93336 18.2658C3.70576 18.2658 3.50762 18.2123 3.50762 18.2123C3.50762 18.2123 3.8778 17.4278 3.50897 16.3306C3.20505 15.4202 3.25461 14.7448 3.25461 14.7448C3.25461 14.7448 2.91257 15.2636 2.06309 15.269H2.05438C1.34816 15.269 1.03957 14.7315 1.03957 14.7315C2.73313 14.0266 2.56712 11.7526 2.56712 11.7526C2.56712 11.7526 2.34622 11.9173 1.9178 11.9333H1.87295C0.93846 11.9333 0.621852 10.9319 0.621852 10.9319H0.641264C0.813968 10.9319 2.20028 10.8917 3.18094 9.64198C3.8269 8.82065 4.35706 8.09834 5.40056 7.81452L5.50566 7.79578L5.52775 7.69068C5.5572 7.53137 5.44742 7.38075 5.19976 7.21944C3.75722 6.27293 4.73656 5.06602 4.73656 5.06602C4.73656 5.06602 5.14622 6.0306 6.07067 6.0306L6.13761 6.02993C6.24204 6.02458 6.34445 6.01989 6.44553 5.99847L6.61556 5.96567C6.61556 5.96567 6.35182 5.24942 6.98775 4.59208C7.46569 4.09538 8.04605 4.01104 8.38143 4.01104C8.55212 4.01104 8.65721 4.03313 8.65721 4.03313C8.33993 4.45015 8.10965 5.14298 8.47648 5.57007C8.7951 5.93758 9.57092 5.95498 9.57092 6.50186C9.57092 6.73415 9.35471 7.00459 8.96713 7.24757C7.79905 7.98391 6.64038 8.96122 6.15817 10.2711C5.55707 11.9044 6.23582 12.9888 7.20443 13.6114C7.20443 13.6114 6.89985 13.8912 6.4594 13.9267C6.37307 13.935 6.2864 13.9392 6.19967 13.9394C5.27053 13.9394 4.78993 13.5029 4.78993 13.5029C4.78993 13.5029 4.87026 14.1061 5.35088 14.667C5.7994 15.1838 6.38509 15.4884 7.27876 15.5011C7.27876 15.5011 7.30754 15.9161 6.91192 16.2762C6.65824 16.5038 6.07384 16.5775 6.07384 16.5775C6.07384 16.5775 7.16963 16.7997 7.29013 18.4196C7.35573 19.2979 7.57796 19.6025 7.57796 19.6025L7.55993 19.6026ZM7.82969 19.4286C7.82901 19.4252 7.65162 19.1474 7.59472 18.3977C7.52778 17.4994 7.18907 16.9746 6.85372 16.6734C6.95078 16.6279 7.04115 16.571 7.11611 16.5027C7.60811 16.0595 7.58735 15.5388 7.58402 15.4812L7.56528 15.2001L7.28347 15.196C6.53241 15.184 6.00828 14.9591 5.58321 14.465C5.49158 14.3581 5.41001 14.2429 5.33954 14.121C5.57383 14.1926 5.86034 14.2455 6.19972 14.2455C6.29009 14.2455 6.38515 14.2401 6.48489 14.2334C6.82655 14.1993 7.14959 14.0615 7.41067 13.8385L7.7032 13.5687L7.36984 13.3545C6.62282 12.8759 5.85904 11.9689 6.44608 10.3778C6.82564 9.3436 7.7032 8.40712 9.13024 7.50861C9.61221 7.20403 9.87595 6.84456 9.87595 6.50184C9.87595 5.97235 9.43413 5.7635 9.11016 5.61422C8.95218 5.53858 8.78752 5.46361 8.70787 5.37055C8.45685 5.07936 8.6677 4.52176 8.90132 4.21917L9.19988 3.82759L8.71592 3.73187C8.70253 3.72985 8.57535 3.70643 8.38122 3.70643C8.0204 3.70643 7.33026 3.79412 6.76799 4.3785C6.29874 4.86448 6.23715 5.38194 6.26125 5.71595C6.21573 5.71997 6.17021 5.72198 6.12202 5.72398H6.07047C5.3636 5.72398 5.03024 4.97427 5.01752 4.94547L4.81871 4.4769L4.4974 4.87184C4.47932 4.89594 4.00873 5.48233 4.12386 6.218C4.1995 6.70666 4.50608 7.12837 5.03224 7.47512C5.0898 7.51194 5.1293 7.5434 5.15808 7.5695C4.1647 7.89281 3.61111 8.6017 3.02607 9.34675L2.94172 9.45252C2.04741 10.5925 0.781507 10.6266 0.630307 10.6266L0.199219 10.6132L0.33042 11.0242C0.345816 11.0738 0.727356 12.2405 1.87271 12.2405L1.9276 12.2385C2.04876 12.2352 2.15788 12.2184 2.25426 12.1997C2.2074 12.8356 1.97313 14.0117 0.920822 14.4489L0.59951 14.5828L0.773553 14.886C0.789619 14.9135 1.18055 15.5741 2.0655 15.5741C2.38223 15.5773 2.69503 15.5038 2.97721 15.3599C3.01135 15.6478 3.08231 16.0166 3.22021 16.4296C3.54018 17.3842 3.2423 18.0543 3.23092 18.081L3.07294 18.4144L3.42973 18.5088C3.45382 18.5155 3.6734 18.5704 3.9331 18.5704C4.29046 18.5713 4.63628 18.444 4.90774 18.2116C5.0048 18.5108 5.17148 18.8488 5.45998 19.148C5.95131 19.6534 6.65754 19.9085 7.57995 19.9085L8.13889 19.9011L7.82969 19.4286ZM10.8988 15.7436C10.8886 15.7428 10.8784 15.744 10.8687 15.7472C10.859 15.7505 10.85 15.7556 10.8423 15.7623C10.8347 15.7691 10.8284 15.7773 10.824 15.7865C10.8195 15.7957 10.817 15.8057 10.8165 15.8159C10.8157 15.8261 10.8169 15.8364 10.8202 15.8461C10.8234 15.8558 10.8286 15.8647 10.8355 15.8724C10.8423 15.88 10.8506 15.8862 10.8599 15.8905C10.8691 15.8948 10.8792 15.8972 10.8894 15.8976C10.9099 15.8989 10.93 15.8921 10.9456 15.8787C10.9611 15.8653 10.9707 15.8464 10.9724 15.8259C10.9735 15.8053 10.9664 15.785 10.9526 15.7696C10.9388 15.7542 10.9195 15.7448 10.8988 15.7436ZM14.397 21.7079L14.0523 20.7573C14.4626 20.6322 15.1675 20.3631 15.4841 20.1843L15.2733 20.8758L15.9875 21.1135C15.5551 21.3304 15.0316 21.5332 14.3971 21.7072L14.397 21.7079ZM12.2563 22.5613C11.4256 22.5613 10.4777 22.3699 10.198 22.2702L10.6223 21.1201C10.9745 21.2232 11.7068 21.3323 12.2389 21.329H12.2724C12.8039 21.3323 13.5356 21.2225 13.8897 21.1201L14.3134 22.2702C14.0336 22.3706 13.0858 22.5613 12.2563 22.5613ZM8.52386 21.1134L9.23877 20.8758L9.02724 20.1843C9.34251 20.363 10.0494 20.6328 10.4584 20.7573L10.1137 21.7078C9.48111 21.5338 8.95562 21.3303 8.52386 21.1134ZM16.0198 20.9026L15.5847 20.7352L15.7052 20.2854L15.837 19.7948C15.837 19.7948 15.0672 20.2138 13.9808 20.5278C13.6729 20.6161 13.4399 20.657 13.4399 20.657V20.991C13.4399 20.991 12.8589 21.0914 12.2725 21.0914H12.239C11.6513 21.0914 11.0716 20.991 11.0716 20.991V20.6563C11.0716 20.6563 10.838 20.6161 10.5301 20.5278C9.44502 20.2131 8.67519 19.7948 8.67519 19.7948L8.80506 20.2854L8.92823 20.7352L8.49179 20.9026L8.00783 21.0833C8.56208 21.3517 9.33054 21.742 10.0334 21.9348L9.86806 22.3887C9.86806 22.3887 10.7597 22.7956 12.2451 22.7997V22.8003H12.2652V22.7997C13.7526 22.7956 14.6442 22.3887 14.6442 22.3887L14.4769 21.9348C15.1804 21.742 15.9502 21.3524 16.5018 21.0833L16.0198 20.9026ZM10.4403 2.58987L10.6377 2.61129L10.7227 2.43055L10.9717 1.89705L11.4336 2.13671L11.613 2.22841L12.2543 1.59114L12.7543 2.0865L12.8976 2.22841L13.077 2.13671L13.5362 1.89705L13.7892 2.43055L13.8729 2.61129L14.0704 2.58987L14.2591 2.56778C14.1728 2.76257 14.1092 2.94801 14.063 3.10195C13.5643 2.8228 12.9163 2.66483 12.255 2.66483C11.5963 2.66483 10.9483 2.82281 10.4476 3.10195C10.3936 2.92001 10.3283 2.7416 10.2522 2.56778L10.4396 2.58987H10.4403ZM12.2543 2.94264C13.1399 2.94264 13.8475 3.23717 14.2391 3.54977C14.2391 3.54977 14.3556 2.84892 14.7518 2.23107L14.0389 2.3114L13.6661 1.51815L12.9498 1.88832L12.2543 1.2002L11.5615 1.88832L10.8439 1.51815L10.4717 2.31207L9.75881 2.2304C10.1557 2.84893 10.2716 3.54911 10.2716 3.54911C10.6652 3.23648 11.3707 2.94264 12.2543 2.94264ZM23.4722 14.7312C23.4722 14.7312 23.1642 15.2687 22.4573 15.2687H22.4486C21.5999 15.2634 21.2571 14.7446 21.2571 14.7446C21.2571 14.7446 21.3067 15.4193 21.0014 16.3303C20.6333 17.4282 21.0041 18.2113 21.0041 18.2113C21.0041 18.2113 20.806 18.2656 20.5777 18.2656C20.4907 18.2656 20.3996 18.2569 20.3133 18.2341C19.6044 18.0661 19.4277 17.4195 19.4277 17.4195C19.4277 17.4195 19.4933 19.6023 16.9516 19.6023H16.9315C16.9315 19.6023 17.1558 19.2978 17.222 18.4195C17.3425 16.7996 18.4377 16.5767 18.4377 16.5767C18.4377 16.5767 17.8533 16.5031 17.5996 16.2761C17.204 15.9166 17.2314 15.501 17.2314 15.501C18.1257 15.4882 18.7121 15.1837 19.1586 14.6662C19.4463 14.3352 19.6405 13.9333 19.7209 13.5022C19.7209 13.5022 19.2403 13.9393 18.3105 13.9393C18.2288 13.9393 18.1418 13.9353 18.0521 13.9266C17.6117 13.8911 17.3078 13.6106 17.3078 13.6106C18.2757 12.9887 18.9545 11.9037 18.3527 10.2703C17.8707 8.96164 16.7113 7.98371 15.5447 7.24724C15.1564 7.00424 14.9395 6.73381 14.9395 6.50154C14.9395 5.95465 15.716 5.93725 16.0347 5.56974C16.4028 5.14266 16.1719 4.44985 15.8533 4.0328C15.8533 4.0328 15.9604 4.01072 16.1297 4.01072C16.4657 4.01072 17.0468 4.09506 17.5247 4.59176C18.1587 5.24912 17.8956 5.96535 17.8956 5.96535L18.0656 5.99882C18.1674 6.01957 18.2684 6.02425 18.3735 6.02961L18.4418 6.03028C19.3636 6.03028 19.7753 5.06503 19.7753 5.06503C19.7753 5.06503 20.7552 6.27261 19.3127 7.21912C19.0644 7.38045 18.9546 7.53107 18.9834 7.69036L19.0061 7.79546L19.1085 7.81353C20.1541 8.09803 20.6836 8.82098 21.3297 9.64166C22.311 10.8914 23.6994 10.9316 23.8701 10.9316H23.8888C23.8888 10.9316 23.5722 11.9337 22.6384 11.9337C22.623 11.9337 22.6096 11.9337 22.5942 11.9323C22.1658 11.9169 21.9449 11.7523 21.9449 11.7523C21.9449 11.7523 21.7782 14.0261 23.4725 14.7311L23.4722 14.7312ZM22.6381 12.2402C23.7828 12.2402 24.1656 11.0735 24.1817 11.0239L24.3089 10.6123L23.8805 10.6257H23.8793C23.7273 10.6257 22.4648 10.5922 21.5698 9.45223L21.4848 9.34647C20.8998 8.60143 20.3448 7.89255 19.3528 7.56922C19.3924 7.53451 19.4347 7.50295 19.4793 7.47483C20.0054 7.12808 20.312 6.70705 20.3883 6.21771C20.5015 5.48204 20.0322 4.89567 20.0121 4.87155L19.6935 4.47661L19.494 4.94519C19.4806 4.97397 19.1459 5.7237 18.4417 5.7237H18.3895C18.3413 5.72168 18.2951 5.71968 18.2496 5.71567C18.2744 5.38096 18.2135 4.86419 17.7449 4.37822C17.1819 3.79382 16.4911 3.70615 16.1297 3.70615C15.9369 3.70615 15.8083 3.73024 15.7943 3.73158L15.313 3.8273L15.6096 4.21889C15.8425 4.52145 16.054 5.07907 15.8037 5.37026C15.7233 5.46398 15.5587 5.53828 15.4014 5.61393C15.0774 5.76321 14.6343 5.97206 14.6343 6.50155C14.6343 6.84427 14.9 7.20374 15.3819 7.50833C16.8064 8.40597 17.686 9.34313 18.0656 10.3775C18.6534 11.968 17.8869 12.8757 17.1419 13.3535L16.8085 13.5684L17.101 13.8375C17.1405 13.8723 17.4973 14.1876 18.0255 14.2331C18.1259 14.2398 18.2216 14.2452 18.3113 14.2452C18.6494 14.2452 18.9379 14.1916 19.1722 14.1206C19.1021 14.2429 19.0205 14.3581 18.9285 14.4647C18.5034 14.9587 17.9799 15.1837 17.2269 15.1957L16.947 15.1997L16.9256 15.4809C16.9229 15.5378 16.9022 16.0592 17.3942 16.5023C17.4698 16.5706 17.5609 16.6275 17.6566 16.673C17.3219 16.9743 16.9832 17.4991 16.9176 18.3974C16.862 19.1471 16.6833 19.4249 16.6813 19.4282L16.372 19.9008L16.9309 19.9082C17.854 19.9082 18.5609 19.6538 19.0502 19.1478C19.3037 18.882 19.4928 18.5616 19.6032 18.2113C19.875 18.4431 20.2206 18.5703 20.5778 18.5701C20.8388 18.5701 21.0571 18.5145 21.0812 18.5092L21.438 18.4141L21.2806 18.0808C21.2686 18.054 20.9714 17.3846 21.2914 16.4294C21.4292 16.0164 21.4995 15.6468 21.5337 15.3583C21.7586 15.4762 22.0592 15.5726 22.4481 15.5739C23.3317 15.5739 23.7206 14.9132 23.738 14.8858L23.9121 14.5818L23.5894 14.4493C22.5371 14.0115 22.3042 12.8361 22.2573 12.2001C22.353 12.2182 22.4615 12.2349 22.584 12.2383L22.6381 12.2402Z" fill="black"/>
</g>
<defs>
<clipPath id="clip0_617_16419">
<rect width="28" height="24" fill="white"/>
</clipPath>
</defs>
</svg>
