<svg width="33" height="24" viewBox="0 0 33 24" fill="none" xmlns="http://www.w3.org/2000/svg">
<g clip-path="url(#clip0_617_16440)">
<path d="M21.3375 0.75C15.0795 0.75 10.0508 5.8125 10.0508 12C10.0508 18.2385 15.129 23.25 21.336 23.25C27.543 23.25 32.6258 18.1875 32.6258 12C32.6258 5.8125 27.5445 0.75 21.3375 0.75ZM21.3375 16.1933C19.029 16.1933 17.1315 14.301 17.1315 12C17.1315 9.699 19.029 7.80675 21.3375 7.80675C23.646 7.80675 25.5443 9.699 25.5443 12C25.4925 14.301 23.646 16.1933 21.3375 16.1933Z" fill="#8B3FFD"/>
<path d="M10.0509 4.01855V20.3821H6.05187L0.921875 4.01855H10.0509Z" fill="#8B3FFD"/>
</g>
<defs>
<clipPath id="clip0_617_16440">
<rect width="33" height="24" fill="white"/>
</clipPath>
</defs>
</svg>
