<svg width="24" height="24" viewBox="0 0 24 24" fill="none" xmlns="http://www.w3.org/2000/svg">
<path d="M3 6.3335V17.6668C3 19.1402 4.19333 20.3335 5.66667 20.3335H19.6667C20.4027 20.3335 21 19.7362 21 19.0002V10.3335C21 9.5975 20.4027 9.00016 19.6667 9.00016H5.66667C4.19333 9.00016 3 7.80683 3 6.3335Z" stroke="#212121" stroke-width="1.5" stroke-linecap="round" stroke-linejoin="round"/>
<path d="M3 6.33341C3 4.86008 4.19333 3.66675 5.66667 3.66675" stroke="#212121" stroke-width="1.5" stroke-linecap="round" stroke-linejoin="round"/>
<path d="M16.9987 16.3333C17.9192 16.3333 18.6654 15.5871 18.6654 14.6667C18.6654 13.7462 17.9192 13 16.9987 13C16.0782 13 15.332 13.7462 15.332 14.6667C15.332 15.5871 16.0782 16.3333 16.9987 16.3333Z" fill="#212121"/>
<path d="M8.03906 5.67343L9.6484 2.38543C9.96973 1.72277 10.7671 1.44677 11.4297 1.7681L19.4484 5.65743" stroke="#212121" stroke-width="1.5" stroke-linecap="round" stroke-linejoin="round"/>
</svg>
